<svg xmlns="http://www.w3.org/2000/svg" xmlns:xlink="http://www.w3.org/1999/xlink" zoomAndPan="magnify" viewBox="0 0 375 149.999998" preserveAspectRatio="xMidYMid meet" version="1.0"><defs><g/><clipPath id="65b4a2cfd6"><path d="M 74.332031 59.765625 L 108.832031 59.765625 L 108.832031 94.265625 L 74.332031 94.265625 Z M 74.332031 59.765625 " clip-rule="nonzero"/></clipPath><clipPath id="d33bfc08e6"><path d="M 147.269531 59.765625 L 181.769531 59.765625 L 181.769531 94.265625 L 147.269531 94.265625 Z M 147.269531 59.765625 " clip-rule="nonzero"/></clipPath></defs><path fill="#1fc39e" d="M 91.582031 86.796875 C 96.976562 86.796875 101.363281 82.410156 101.363281 77.015625 C 101.363281 71.621094 96.976562 67.234375 91.582031 67.234375 C 86.191406 67.234375 81.800781 71.621094 81.800781 77.015625 C 81.800781 82.410156 86.191406 86.796875 91.582031 86.796875 Z M 91.582031 68.675781 C 96.191406 68.675781 99.921875 72.410156 99.921875 77.015625 C 99.921875 81.621094 96.191406 85.355469 91.582031 85.355469 C 86.976562 85.355469 83.242188 81.621094 83.242188 77.015625 C 83.242188 72.410156 86.976562 68.675781 91.582031 68.675781 Z M 91.582031 68.675781 " fill-opacity="1" fill-rule="nonzero"/><g clip-path="url(#65b4a2cfd6)"><path fill="#1fc39e" d="M 82.144531 89.664062 C 82.082031 89.46875 82.1875 89.261719 82.386719 89.199219 C 82.582031 89.136719 82.789062 89.246094 82.847656 89.441406 L 83.773438 92.398438 C 86.082031 93.574219 88.6875 94.242188 91.445312 94.265625 L 89.730469 92.691406 C 89.582031 92.550781 89.570312 92.316406 89.710938 92.164062 C 89.847656 92.015625 90.082031 92.007812 90.230469 92.144531 L 92.511719 94.242188 C 95.257812 94.09375 97.832031 93.304688 100.089844 92.019531 L 97.816406 91.511719 C 97.617188 91.46875 97.488281 91.269531 97.535156 91.070312 C 97.582031 90.871094 97.777344 90.746094 97.976562 90.789062 L 101 91.46875 C 103.230469 90.011719 105.101562 88.054688 106.453125 85.757812 L 104.230469 86.453125 C 104.195312 86.464844 104.15625 86.46875 104.121094 86.46875 C 103.960938 86.46875 103.816406 86.367188 103.765625 86.210938 C 103.707031 86.015625 103.8125 85.808594 104.007812 85.746094 L 106.964844 84.820312 C 108.136719 82.511719 108.808594 79.910156 108.832031 77.152344 L 107.253906 78.863281 C 107.183594 78.941406 107.082031 78.984375 106.984375 78.984375 C 106.894531 78.984375 106.800781 78.949219 106.734375 78.886719 C 106.582031 78.746094 106.570312 78.511719 106.710938 78.363281 L 108.808594 76.082031 C 108.660156 73.335938 107.871094 70.761719 106.585938 68.503906 L 106.078125 70.777344 C 106.042969 70.953125 105.886719 71.066406 105.71875 71.066406 C 105.691406 71.066406 105.664062 71.066406 105.636719 71.058594 C 105.4375 71.015625 105.3125 70.816406 105.355469 70.617188 L 106.03125 67.59375 C 104.578125 65.367188 102.621094 63.496094 100.320312 62.140625 L 101.019531 64.363281 C 101.078125 64.558594 100.972656 64.765625 100.777344 64.828125 C 100.738281 64.839844 100.703125 64.847656 100.664062 64.847656 C 100.507812 64.847656 100.359375 64.746094 100.3125 64.585938 L 99.382812 61.628906 C 97.082031 60.457031 94.480469 59.789062 91.71875 59.765625 L 93.433594 61.339844 C 93.582031 61.476562 93.59375 61.714844 93.457031 61.863281 C 93.382812 61.941406 93.28125 61.980469 93.183594 61.980469 C 93.09375 61.980469 93.003906 61.949219 92.933594 61.882812 L 90.648438 59.789062 C 87.902344 59.933594 85.332031 60.726562 83.074219 62.007812 L 85.347656 62.515625 C 85.546875 62.5625 85.671875 62.757812 85.628906 62.960938 C 85.589844 63.128906 85.4375 63.246094 85.265625 63.246094 C 85.242188 63.246094 85.214844 63.246094 85.1875 63.238281 L 82.164062 62.5625 C 79.9375 64.019531 78.0625 65.972656 76.710938 68.273438 L 78.933594 67.578125 C 79.128906 67.511719 79.335938 67.625 79.398438 67.820312 C 79.457031 68.015625 79.347656 68.222656 79.152344 68.28125 L 76.199219 69.207031 C 75.027344 71.511719 74.355469 74.117188 74.332031 76.875 L 75.90625 75.164062 C 76.046875 75.015625 76.28125 75.003906 76.429688 75.144531 C 76.582031 75.28125 76.589844 75.515625 76.453125 75.664062 L 74.355469 77.945312 C 74.503906 80.691406 75.292969 83.265625 76.574219 85.519531 L 77.082031 83.25 C 77.128906 83.050781 77.328125 82.921875 77.523438 82.96875 C 77.722656 83.011719 77.851562 83.210938 77.804688 83.410156 L 77.128906 86.433594 C 78.585938 88.660156 80.539062 90.535156 82.839844 91.886719 Z M 91.582031 66 C 97.65625 66 102.597656 70.941406 102.597656 77.015625 C 102.597656 83.089844 97.65625 88.03125 91.582031 88.03125 C 85.507812 88.03125 80.566406 83.089844 80.566406 77.015625 C 80.566406 70.941406 85.507812 66 91.582031 66 Z M 91.582031 66 " fill-opacity="1" fill-rule="nonzero"/></g><g clip-path="url(#d33bfc08e6)"><path fill="#1fc39e" d="M 161.71875 77.363281 C 161.71875 75.828125 162.984375 74.5625 164.519531 74.5625 C 166.054688 74.5625 167.320312 75.828125 167.320312 77.363281 C 167.320312 78.894531 166.054688 80.160156 164.519531 80.160156 C 162.984375 80.160156 161.71875 78.933594 161.71875 77.363281 Z M 147.269531 77.015625 C 147.269531 67.472656 154.976562 59.765625 164.519531 59.765625 C 174.0625 59.765625 181.769531 67.472656 181.769531 77.015625 C 181.769531 86.5625 174.0625 94.265625 164.519531 94.265625 C 154.976562 94.265625 147.269531 86.5625 147.269531 77.015625 Z M 150.605469 80.3125 C 150.410156 86.140625 162.101562 94.230469 162.101562 89.972656 C 162.101562 86.40625 160.761719 84.144531 159.265625 82.652344 C 157.234375 80.65625 155.28125 79.390625 153.789062 79.085938 C 151.792969 78.625 150.640625 79.585938 150.605469 80.3125 Z M 150.488281 74.179688 C 150.410156 74.867188 151.832031 74.792969 152.710938 74.679688 C 155.472656 74.179688 160.113281 71.800781 164.75 71.800781 C 168.007812 71.800781 171.496094 73.335938 173.832031 74.027344 C 174.640625 74.257812 175.789062 74.679688 177.4375 74.753906 C 178.050781 74.792969 178.664062 74.640625 178.628906 74.101562 C 178.398438 70.308594 173.492188 62.753906 164.519531 62.753906 C 157.695312 62.753906 151.027344 68.46875 150.488281 74.179688 Z M 178.511719 80.3125 C 178.472656 79.585938 177.324219 78.585938 175.328125 79.050781 C 173.875 79.390625 171.878906 80.617188 169.847656 82.652344 C 168.355469 84.144531 167.007812 86.40625 167.007812 89.972656 C 167.050781 94.230469 178.703125 86.140625 178.511719 80.3125 Z M 160.496094 77.363281 C 160.496094 79.585938 162.296875 81.386719 164.519531 81.386719 C 166.742188 81.386719 168.542969 79.585938 168.542969 77.363281 C 168.542969 75.136719 166.742188 73.335938 164.519531 73.335938 C 162.296875 73.335938 160.496094 75.136719 160.496094 77.363281 " fill-opacity="1" fill-rule="nonzero"/></g><g fill="#1fc39e" fill-opacity="1"><g transform="translate(198.283103, 91.366911)"><g><path d="M 17.671875 0.421875 C 14.523438 0.421875 11.769531 -0.128906 9.40625 -1.234375 C 7.039062 -2.347656 5.207031 -3.910156 3.90625 -5.921875 C 2.601562 -7.941406 1.953125 -10.332031 1.953125 -13.09375 C 1.953125 -15.664062 2.40625 -17.910156 3.3125 -19.828125 C 4.21875 -21.753906 5.460938 -23.34375 7.046875 -24.59375 C 8.628906 -25.851562 10.476562 -26.800781 12.59375 -27.4375 C 14.707031 -28.070312 16.953125 -28.390625 19.328125 -28.390625 C 20.859375 -28.390625 22.335938 -28.222656 23.765625 -27.890625 C 25.191406 -27.554688 26.347656 -27.148438 27.234375 -26.671875 L 27.4375 -19.625 L 23.90625 -19.53125 L 22.328125 -24.046875 C 21.734375 -24.335938 21.140625 -24.53125 20.546875 -24.625 C 19.960938 -24.71875 19.398438 -24.765625 18.859375 -24.765625 C 17.367188 -24.765625 16.039062 -24.390625 14.875 -23.640625 C 13.71875 -22.898438 12.8125 -21.78125 12.15625 -20.28125 C 11.507812 -18.789062 11.1875 -16.9375 11.1875 -14.71875 C 11.1875 -12.425781 11.550781 -10.421875 12.28125 -8.703125 C 13.007812 -6.992188 13.992188 -5.671875 15.234375 -4.734375 C 16.472656 -3.796875 17.835938 -3.328125 19.328125 -3.328125 C 19.523438 -3.328125 19.804688 -3.347656 20.171875 -3.390625 C 20.535156 -3.441406 20.859375 -3.488281 21.140625 -3.53125 L 20.046875 -1 L 20.046875 -6.09375 C 20.046875 -6.539062 20.019531 -7.117188 19.96875 -7.828125 C 19.925781 -8.546875 19.875 -9.113281 19.8125 -9.53125 L 16.328125 -10.421875 L 16.484375 -13.234375 L 30.1875 -13.234375 L 30.328125 -10.53125 L 27.8125 -9.578125 C 27.78125 -9.097656 27.765625 -8.515625 27.765625 -7.828125 C 27.765625 -7.148438 27.765625 -6.507812 27.765625 -5.90625 C 27.765625 -5.582031 27.78125 -5.078125 27.8125 -4.390625 C 27.84375 -3.710938 27.875 -2.945312 27.90625 -2.09375 C 26.445312 -1.207031 24.835938 -0.566406 23.078125 -0.171875 C 21.316406 0.222656 19.515625 0.421875 17.671875 0.421875 Z M 17.671875 0.421875 "/></g></g></g><g fill="#1fc39e" fill-opacity="1"><g transform="translate(237.507724, 91.366911)"><g><path d="M 18.625 0 L 18.484375 -2.71875 L 21.4375 -3.625 C 21.5 -3.8125 21.550781 -4.300781 21.59375 -5.09375 C 21.644531 -5.882812 21.6875 -6.828125 21.71875 -7.921875 C 21.75 -9.023438 21.765625 -10.097656 21.765625 -11.140625 L 21.765625 -16.859375 C 21.765625 -17.941406 21.75 -19.035156 21.71875 -20.140625 C 21.6875 -21.253906 21.644531 -22.207031 21.59375 -23 C 21.550781 -23.789062 21.5 -24.269531 21.4375 -24.4375 L 18.484375 -25.234375 L 18.625 -27.953125 L 33.046875 -27.953125 L 33.1875 -25.234375 L 30.09375 -24.4375 C 30.0625 -24.269531 30.015625 -23.742188 29.953125 -22.859375 C 29.890625 -21.972656 29.832031 -20.960938 29.78125 -19.828125 C 29.738281 -18.703125 29.71875 -17.710938 29.71875 -16.859375 L 29.71875 -11.140625 C 29.71875 -10.316406 29.738281 -9.347656 29.78125 -8.234375 C 29.832031 -7.128906 29.890625 -6.128906 29.953125 -5.234375 C 30.015625 -4.347656 30.0625 -3.8125 30.09375 -3.625 L 33.1875 -2.71875 L 33.046875 0 Z M 1.578125 0 L 1.421875 -2.71875 L 4.53125 -3.625 C 4.59375 -3.75 4.65625 -4.175781 4.71875 -4.90625 C 4.78125 -5.632812 4.828125 -6.550781 4.859375 -7.65625 C 4.890625 -8.769531 4.90625 -9.929688 4.90625 -11.140625 L 4.90625 -16.859375 C 4.90625 -18.097656 4.890625 -19.269531 4.859375 -20.375 C 4.828125 -21.488281 4.78125 -22.414062 4.71875 -23.15625 C 4.65625 -23.90625 4.59375 -24.332031 4.53125 -24.4375 L 1.421875 -25.234375 L 1.578125 -27.953125 L 16 -27.953125 L 16.140625 -25.234375 L 13.1875 -24.4375 C 13.125 -24.269531 13.066406 -23.789062 13.015625 -23 C 12.972656 -22.207031 12.9375 -21.253906 12.90625 -20.140625 C 12.875 -19.035156 12.859375 -17.941406 12.859375 -16.859375 L 12.859375 -11.140625 C 12.859375 -10.097656 12.875 -9.023438 12.90625 -7.921875 C 12.9375 -6.828125 12.972656 -5.882812 13.015625 -5.09375 C 13.066406 -4.300781 13.125 -3.8125 13.1875 -3.625 L 16.140625 -2.71875 L 16 0 Z M 11.375 -12.140625 L 11.375 -16.28125 C 12.269531 -16.1875 13.144531 -16.125 14 -16.09375 C 14.851562 -16.0625 15.945312 -16.046875 17.28125 -16.046875 C 18.613281 -16.046875 19.707031 -16.0625 20.5625 -16.09375 C 21.425781 -16.125 22.300781 -16.1875 23.1875 -16.28125 L 23.1875 -12.140625 C 22.582031 -12.140625 21.804688 -12.171875 20.859375 -12.234375 C 19.910156 -12.296875 18.71875 -12.328125 17.28125 -12.328125 C 15.851562 -12.328125 14.675781 -12.296875 13.75 -12.234375 C 12.832031 -12.171875 12.039062 -12.140625 11.375 -12.140625 Z M 11.375 -12.140625 "/></g></g></g><g fill="#1fc39e" fill-opacity="1"><g transform="translate(279.399445, 91.366911)"><g><path d="M 0 0 L -0.140625 -2.71875 L 2.375 -3.625 L 12 -26.1875 L 16.71875 -28.8125 L 28.046875 -3.625 L 30.578125 -2.71875 L 30.4375 0 L 15.71875 0 L 15.484375 -2.71875 L 18.625 -3.625 L 16.28125 -9.09375 L 15.765625 -10.859375 L 11.234375 -21.046875 L 12.859375 -20 L 9.53125 -11.09375 L 9.09375 -9.671875 L 7 -3.625 L 10.140625 -2.71875 L 10 0 Z M 7.71875 -7.625 L 7.71875 -11.328125 C 8.382812 -11.296875 9.054688 -11.25 9.734375 -11.1875 C 10.421875 -11.125 11.367188 -11.09375 12.578125 -11.09375 C 13.742188 -11.09375 14.691406 -11.125 15.421875 -11.1875 C 16.160156 -11.25 16.847656 -11.296875 17.484375 -11.328125 L 17.484375 -7.671875 C 17.222656 -7.671875 16.710938 -7.6875 15.953125 -7.71875 C 15.191406 -7.75 14.066406 -7.765625 12.578125 -7.765625 C 11.015625 -7.765625 9.875 -7.75 9.15625 -7.71875 C 8.445312 -7.6875 7.96875 -7.65625 7.71875 -7.625 Z M 7.71875 -7.625 "/></g></g></g><g fill="#1fc39e" fill-opacity="1"><g transform="translate(316.766621, 91.366911)"><g><path d="M 1.859375 0 L 1.71875 -2.71875 L 4.8125 -3.578125 C 4.8125 -3.765625 4.816406 -4.148438 4.828125 -4.734375 C 4.847656 -5.328125 4.863281 -6.019531 4.875 -6.8125 C 4.894531 -7.601562 4.910156 -8.382812 4.921875 -9.15625 C 4.941406 -9.9375 4.953125 -10.597656 4.953125 -11.140625 L 4.953125 -16.859375 C 4.953125 -18.097656 4.9375 -19.265625 4.90625 -20.359375 C 4.875 -21.453125 4.828125 -22.363281 4.765625 -23.09375 C 4.703125 -23.820312 4.640625 -24.234375 4.578125 -24.328125 L 1.46875 -25.234375 L 1.625 -27.953125 L 15.09375 -27.953125 C 19.15625 -27.953125 22.125 -27.363281 24 -26.1875 C 25.875 -25.019531 26.8125 -23.117188 26.8125 -20.484375 C 26.8125 -18.921875 26.3125 -17.53125 25.3125 -16.3125 C 24.3125 -15.09375 22.929688 -14.128906 21.171875 -13.421875 C 19.410156 -12.722656 17.382812 -12.375 15.09375 -12.375 L 11.625 -12.375 L 11.625 -15.53125 L 13.765625 -15.53125 C 15.128906 -15.53125 16.253906 -16.015625 17.140625 -16.984375 C 18.035156 -17.953125 18.484375 -19.195312 18.484375 -20.71875 C 18.484375 -22.082031 18.113281 -23.128906 17.375 -23.859375 C 16.644531 -24.585938 15.582031 -24.953125 14.1875 -24.953125 L 12.953125 -24.953125 C 12.953125 -24.828125 12.941406 -24.460938 12.921875 -23.859375 C 12.910156 -23.253906 12.894531 -22.53125 12.875 -21.6875 C 12.863281 -20.851562 12.859375 -20.003906 12.859375 -19.140625 C 12.859375 -18.285156 12.859375 -17.554688 12.859375 -16.953125 L 12.859375 -11.140625 C 12.859375 -10.628906 12.863281 -9.878906 12.875 -8.890625 C 12.894531 -7.910156 12.910156 -6.921875 12.921875 -5.921875 C 12.941406 -4.921875 12.953125 -4.140625 12.953125 -3.578125 L 15.53125 -2.71875 L 15.375 0 Z M 28.140625 0.625 C 26.140625 0.625 24.34375 0.320312 22.75 -0.28125 C 21.164062 -0.882812 19.8125 -1.773438 18.6875 -2.953125 C 17.5625 -4.128906 16.648438 -5.570312 15.953125 -7.28125 L 13.625 -13.140625 L 19.953125 -14.625 L 25.953125 -6.53125 C 26.460938 -5.894531 27.019531 -5.296875 27.625 -4.734375 C 28.226562 -4.179688 28.878906 -3.691406 29.578125 -3.265625 C 30.273438 -2.835938 31.019531 -2.492188 31.8125 -2.234375 L 31.765625 0.28125 C 31.128906 0.40625 30.515625 0.492188 29.921875 0.546875 C 29.335938 0.597656 28.742188 0.625 28.140625 0.625 Z M 28.140625 0.625 "/></g></g></g><g fill="#1fc39e" fill-opacity="1"><g transform="translate(26.407684, 91.366911)"><g><path d="M 2.140625 -27.953125 L 13.234375 -27.953125 L 23.1875 -7.90625 L 21.484375 -7.90625 L 29.953125 -27.953125 L 41.484375 -27.953125 L 41.625 -25.234375 L 38.53125 -24.390625 C 38.5 -23.753906 38.5 -22.984375 38.53125 -22.078125 C 38.5625 -21.171875 38.59375 -20.050781 38.625 -18.71875 L 38.953125 -10.625 C 39.015625 -9.445312 39.078125 -8.332031 39.140625 -7.28125 C 39.203125 -6.238281 39.273438 -5.382812 39.359375 -4.71875 C 39.441406 -4.050781 39.5 -3.6875 39.53125 -3.625 L 42.625 -2.71875 L 42.484375 0 L 27.765625 0 L 27.625 -2.71875 L 30.71875 -3.625 C 30.78125 -3.71875 30.816406 -4.117188 30.828125 -4.828125 C 30.847656 -5.546875 30.863281 -6.453125 30.875 -7.546875 C 30.894531 -8.640625 30.890625 -9.789062 30.859375 -11 L 30.671875 -26.578125 L 33.484375 -26.578125 L 22.234375 0.140625 L 18.375 0.140625 L 5.046875 -26.578125 L 9.1875 -26.578125 L 9.234375 -10 C 9.234375 -7.71875 9.25 -6.109375 9.28125 -5.171875 C 9.3125 -4.234375 9.34375 -3.71875 9.375 -3.625 L 12.765625 -2.71875 L 12.625 0 L 1.53125 0 L 1.375 -2.71875 L 4.765625 -3.625 C 4.796875 -3.78125 4.816406 -4.210938 4.828125 -4.921875 C 4.847656 -5.640625 4.875 -6.484375 4.90625 -7.453125 C 4.9375 -8.421875 4.953125 -9.316406 4.953125 -10.140625 L 5.046875 -18.578125 C 5.078125 -20.066406 5.09375 -21.3125 5.09375 -22.3125 C 5.09375 -23.3125 5.09375 -23.984375 5.09375 -24.328125 L 2 -25.234375 Z M 2.140625 -27.953125 "/></g></g></g><g fill="#1fc39e" fill-opacity="1"><g transform="translate(110.984125, 91.366911)"><g><path d="M 29 -28.234375 L 30.140625 -19.28125 L 26.671875 -19.046875 L 24.8125 -24.671875 C 24.53125 -24.734375 24.1875 -24.769531 23.78125 -24.78125 C 23.382812 -24.800781 22.914062 -24.8125 22.375 -24.8125 L 20.90625 -24.8125 C 20.65625 -24.8125 20.398438 -24.800781 20.140625 -24.78125 C 19.890625 -24.769531 19.734375 -24.75 19.671875 -24.71875 C 19.671875 -24.53125 19.65625 -23.925781 19.625 -22.90625 C 19.59375 -21.882812 19.566406 -20.648438 19.546875 -19.203125 C 19.535156 -17.765625 19.53125 -16.269531 19.53125 -14.71875 L 19.53125 -11.53125 C 19.53125 -9.90625 19.550781 -8.394531 19.59375 -7 C 19.644531 -5.601562 19.6875 -4.476562 19.71875 -3.625 L 23.953125 -2.8125 L 23.8125 0 L 7.234375 0 L 7.09375 -2.8125 L 11.328125 -3.625 C 11.390625 -4.476562 11.4375 -5.601562 11.46875 -7 C 11.507812 -8.394531 11.53125 -9.90625 11.53125 -11.53125 L 11.53125 -14.71875 C 11.53125 -16.269531 11.519531 -17.765625 11.5 -19.203125 C 11.488281 -20.648438 11.472656 -21.882812 11.453125 -22.90625 C 11.429688 -23.925781 11.40625 -24.53125 11.375 -24.71875 C 11.3125 -24.75 11.15625 -24.769531 10.90625 -24.78125 C 10.65625 -24.800781 10.398438 -24.8125 10.140625 -24.8125 L 8.625 -24.8125 C 8.113281 -24.8125 7.617188 -24.800781 7.140625 -24.78125 C 6.660156 -24.769531 6.28125 -24.734375 6 -24.671875 L 4.328125 -18.953125 L 0.859375 -19.234375 L 1.8125 -28.234375 C 2.125 -28.234375 2.628906 -28.21875 3.328125 -28.1875 C 4.023438 -28.15625 4.785156 -28.125 5.609375 -28.09375 C 6.441406 -28.0625 7.238281 -28.03125 8 -28 C 8.757812 -27.96875 9.378906 -27.953125 9.859375 -27.953125 L 21 -27.953125 C 21.476562 -27.953125 22.097656 -27.96875 22.859375 -28 C 23.617188 -28.03125 24.410156 -28.0625 25.234375 -28.09375 C 26.066406 -28.125 26.820312 -28.15625 27.5 -28.1875 C 28.1875 -28.21875 28.6875 -28.234375 29 -28.234375 Z M 29 -28.234375 "/></g></g></g></svg>