<svg  viewBox="0 0 56 56" fill="none" xmlns="http://www.w3.org/2000/svg">
<g clip-path="url(#clip0_1729_662)">
<path d="M50.6644 24.4529L45.4533 22.8974C45.093 21.6394 44.5976 20.4242 43.9756 19.2729L46.5267 14.4974C46.6224 14.3171 46.6574 14.1108 46.6266 13.909C46.5958 13.7073 46.5007 13.5208 46.3556 13.3774L42.6378 9.64403C42.4943 9.49885 42.3079 9.40379 42.1061 9.37297C41.9044 9.34214 41.698 9.3772 41.5178 9.47292L36.7733 12.0085C35.6107 11.3562 34.3795 10.8345 33.1022 10.4529L31.5467 5.30403C31.4809 5.11428 31.3566 4.9503 31.1916 4.83569C31.0267 4.72108 30.8297 4.66175 30.6289 4.66625H25.3711C25.1691 4.66719 24.9727 4.73257 24.8104 4.85288C24.6481 4.97318 24.5285 5.14213 24.4689 5.33514L22.9133 10.4685C21.6254 10.848 20.3836 11.3697 19.2111 12.024L14.5444 9.50403C14.3642 9.40831 14.1579 9.37326 13.9561 9.40408C13.7543 9.4349 13.5679 9.52996 13.4244 9.67514L9.64444 13.3618C9.49926 13.5053 9.4042 13.6917 9.37338 13.8935C9.34255 14.0952 9.3776 14.3015 9.47333 14.4818L11.9933 19.1485C11.3401 20.3161 10.8184 21.5525 10.4378 22.8351L5.28888 24.3907C5.09588 24.4503 4.92692 24.57 4.80662 24.7322C4.68632 24.8945 4.62094 25.0909 4.62 25.2929V30.5507C4.62094 30.7527 4.68632 30.9491 4.80662 31.1114C4.92692 31.2737 5.09588 31.3933 5.28888 31.4529L10.4689 33.0085C10.8536 34.2697 11.3753 35.4851 12.0244 36.6329L9.47333 41.5174C9.3776 41.6976 9.34255 41.9039 9.37338 42.1057C9.4042 42.3075 9.49926 42.4939 9.64444 42.6374L13.3622 46.3551C13.5057 46.5003 13.6921 46.5954 13.8939 46.6262C14.0956 46.657 14.302 46.622 14.4822 46.5263L19.2889 43.9596C20.4259 44.5731 21.6254 45.0633 22.8667 45.4218L24.4222 50.664C24.4818 50.857 24.6015 51.026 24.7637 51.1463C24.926 51.2666 25.1224 51.332 25.3244 51.3329H30.5822C30.7842 51.332 30.9806 51.2666 31.1429 51.1463C31.3052 51.026 31.4248 50.857 31.4844 50.664L33.04 45.4063C34.2707 45.0459 35.4596 44.5558 36.5867 43.944L41.4244 46.5263C41.6047 46.622 41.811 46.657 42.0128 46.6262C42.2145 46.5954 42.401 46.5003 42.5444 46.3551L46.2622 42.6374C46.4074 42.4939 46.5025 42.3075 46.5333 42.1057C46.5641 41.9039 46.5291 41.6976 46.4333 41.5174L43.8511 36.6951C44.4692 35.5638 44.9646 34.3696 45.3289 33.1329L50.5711 31.5774C50.7641 31.5178 50.9331 31.3981 51.0534 31.2358C51.1737 31.0736 51.2391 30.8771 51.24 30.6751V25.3707C51.2492 25.1773 51.199 24.9857 51.0961 24.8216C50.9932 24.6575 50.8426 24.5289 50.6644 24.4529ZM28 36.5551C26.3079 36.5551 24.6537 36.0534 23.2468 35.1133C21.8398 34.1732 20.7432 32.837 20.0957 31.2737C19.4481 29.7103 19.2787 27.9901 19.6088 26.3305C19.939 24.6709 20.7538 23.1464 21.9503 21.9499C23.1468 20.7534 24.6713 19.9385 26.3309 19.6084C27.9905 19.2783 29.7107 19.4477 31.2741 20.0953C32.8374 20.7428 34.1736 21.8394 35.1137 23.2464C36.0538 24.6533 36.5556 26.3075 36.5556 27.9996C36.5556 30.2687 35.6542 32.4448 34.0497 34.0493C32.4452 35.6538 30.2691 36.5551 28 36.5551Z" fill="#4E4E4E"/>
</g>
<defs>
<clipPath id="clip0_1729_662">
<rect width="56" height="56" fill="white"/>
</clipPath>
</defs>
</svg>
