<svg viewBox="0 0 64 64" fill="none" xmlns="http://www.w3.org/2000/svg">
<path d="M5.65805 34.6076C5.47717 34.6075 5.2997 34.5583 5.14454 34.4654C4.98938 34.3724 4.86235 34.2391 4.77697 34.0796C4.69159 33.9201 4.65107 33.7405 4.65971 33.5598C4.66836 33.3791 4.72584 33.2042 4.82605 33.0536L6.82605 30.0536C6.9334 29.8916 7.0856 29.7644 7.26405 29.6876L13.9481 26.8236C14.1892 26.7339 14.4557 26.7404 14.6922 26.8418C14.9287 26.9432 15.1171 27.1317 15.2184 27.3683C15.3197 27.6048 15.3261 27.8713 15.2363 28.1124C15.1465 28.3536 14.9674 28.5509 14.7361 28.6636L8.32605 31.4096L6.49005 34.1616C6.39882 34.2987 6.27514 34.4111 6.12999 34.4889C5.98485 34.5667 5.82274 34.6075 5.65805 34.6076Z" fill="#4C6D86"/>
<path d="M11.7721 29.9336L14.7361 28.6636C14.9674 28.5509 15.1465 28.3536 15.2363 28.1124C15.3261 27.8713 15.3197 27.6048 15.2184 27.3683C15.1171 27.1317 14.9287 26.9432 14.6922 26.8418C14.4557 26.7404 14.1892 26.7339 13.9481 26.8236L9.31006 28.8096L11.7721 29.9336Z" fill="#41667D"/>
<path d="M14 47.6084C17.866 47.6084 21 44.4744 21 40.6084C21 36.7424 17.866 33.6084 14 33.6084C10.134 33.6084 7 36.7424 7 40.6084C7 44.4744 10.134 47.6084 14 47.6084Z" fill="#3C3B42"/>
<path d="M14 33.6084C13.572 33.6084 13.156 33.6604 12.75 33.7344C16.018 34.3264 18.5 37.1704 18.5 40.6084C18.5 44.0464 16.018 46.8904 12.75 47.4824C13.156 47.5564 13.572 47.6084 14 47.6084C15.8565 47.6084 17.637 46.8709 18.9497 45.5581C20.2625 44.2454 21 42.4649 21 40.6084C21 38.7519 20.2625 36.9714 18.9497 35.6586C17.637 34.3459 15.8565 33.6084 14 33.6084Z" fill="#2B2A2F"/>
<path d="M14 44.6084C16.2091 44.6084 18 42.8175 18 40.6084C18 38.3993 16.2091 36.6084 14 36.6084C11.7909 36.6084 10 38.3993 10 40.6084C10 42.8175 11.7909 44.6084 14 44.6084Z" fill="#D5E5F1"/>
<path d="M16 40.6081L26.7 38.3681L24.314 32.6621L15.176 38.9941L16 40.6081Z" fill="#617E95"/>
<path d="M14 42.6084C15.1046 42.6084 16 41.713 16 40.6084C16 39.5038 15.1046 38.6084 14 38.6084C12.8954 38.6084 12 39.5038 12 40.6084C12 41.713 12.8954 42.6084 14 42.6084Z" fill="#4C6D86"/>
<path d="M24.3139 32.6621L21.0439 34.9281C21.2379 35.2181 21.4539 35.4921 21.6159 35.8041C22.1679 36.8621 22.5379 38.0081 22.7479 39.1961L26.6979 38.3701L24.3139 32.6621Z" fill="#4C6D86"/>
<path d="M50 47.6084C53.866 47.6084 57 44.4744 57 40.6084C57 36.7424 53.866 33.6084 50 33.6084C46.134 33.6084 43 36.7424 43 40.6084C43 44.4744 46.134 47.6084 50 47.6084Z" fill="#3C3B42"/>
<path d="M45 42.6084C45 40.7519 45.7375 38.9714 47.0503 37.6586C48.363 36.3459 50.1435 35.6084 52 35.6084C53.42 35.6084 54.74 36.0384 55.842 36.7664C55.2067 35.7966 54.3401 35.0001 53.3202 34.4488C52.3004 33.8975 51.1593 33.6087 50 33.6084C48.1435 33.6084 46.363 34.3459 45.0503 35.6586C43.7375 36.9714 43 38.7519 43 40.6084C42.9998 41.7678 43.2884 42.9091 43.8397 43.929C44.3911 44.949 45.1878 45.8155 46.158 46.4504C45.4024 45.3115 44.9996 43.9751 45 42.6084Z" fill="#2B2A2F"/>
<path d="M50 44.6084C52.2091 44.6084 54 42.8175 54 40.6084C54 38.3993 52.2091 36.6084 50 36.6084C47.7909 36.6084 46 38.3993 46 40.6084C46 42.8175 47.7909 44.6084 50 44.6084Z" fill="#D5E5F1"/>
<path d="M48.914 40.1418L44.988 34.1638L48.52 31.7998L50.468 39.4998L48.914 40.1418Z" fill="#617E95"/>
<path d="M50 42.6084C51.1046 42.6084 52 41.713 52 40.6084C52 39.5038 51.1046 38.6084 50 38.6084C48.8954 38.6084 48 39.5038 48 40.6084C48 41.713 48.8954 42.6084 50 42.6084Z" fill="#4C6D86"/>
<path d="M48.52 31.7998L44.988 34.1638L46.294 36.1538C47.188 35.4938 48.174 34.9658 49.214 34.5518L48.52 31.7998Z" fill="#4C6D86"/>
<path d="M46.678 17.8304L41 15.6084L43.83 20.4024C43.9292 20.5672 43.9782 20.7574 43.971 20.9496C43.9639 21.1419 43.9008 21.3279 43.7897 21.4849C43.6785 21.6419 43.524 21.7631 43.345 21.8337C43.1661 21.9043 42.9705 21.9212 42.782 21.8824C41.8661 21.6992 40.9342 21.6074 40 21.6084C35.348 21.6084 31.47 23.8384 30.358 26.8524C30.206 27.2624 29.854 27.5604 29.416 27.5624L21.506 27.6084C21.3498 27.6093 21.1955 27.5736 21.0555 27.5042C20.9155 27.4347 20.7938 27.3334 20.7 27.2084L18.3 24.0084C18.2065 23.8842 18.0853 23.7834 17.9461 23.7139C17.807 23.6445 17.6536 23.6084 17.498 23.6084L7.00004 23.6264C5.99204 23.6264 5.61804 24.9464 6.47404 25.4764L17.998 30.7284C20.35 31.8004 22.42 33.5144 23.616 35.8064C24.48 37.4604 24.95 39.3204 24.95 41.2424V43.6104C24.95 44.1408 25.1608 44.6495 25.5358 45.0246C25.9109 45.3997 26.4196 45.6104 26.95 45.6104H39.044C39.5545 45.6075 40.0446 45.4095 40.4138 45.057C40.783 44.7045 41.0035 44.2242 41.03 43.7144C41.064 43.2124 41.126 42.7044 41.218 42.1944C42.188 36.8044 46.658 32.5244 52.08 31.7484C53.3025 31.5706 54.5439 31.5645 55.768 31.7304C55.9161 31.7484 56.0664 31.7324 56.2073 31.6834C56.3482 31.6345 56.4761 31.5539 56.5811 31.448C56.6861 31.342 56.7654 31.2134 56.8131 31.0721C56.8607 30.9307 56.8754 30.7803 56.856 30.6324C56.4393 27.7905 55.2783 25.1093 53.4908 22.8609C51.7033 20.6126 49.3529 18.877 46.678 17.8304ZM45.068 22.6264L45.13 22.6024L45.132 22.6064L45.068 22.6264Z" fill="#92CA62"/>
<path d="M49.13 22.6024L49.068 22.6264L49.132 22.6064L49.13 22.6024ZM38.95 45.6084H34.95H39.044H38.95ZM25.506 27.6084L33.416 27.5624C33.854 27.5604 34.206 27.2624 34.358 26.8524C35.306 24.2864 38.266 22.3024 41.996 21.7644C41.3352 21.6653 40.6682 21.6131 40 21.6084C35.348 21.6084 31.47 23.8384 30.358 26.8524C30.206 27.2624 29.854 27.5604 29.416 27.5624L25.41 27.5864C25.442 27.5884 25.472 27.6084 25.506 27.6084ZM16.3 24.0104L18.7 27.2104C18.7938 27.3354 18.9155 27.4367 19.0555 27.5062C19.1955 27.5756 19.3498 27.6113 19.506 27.6104L21.458 27.5984C21.3108 27.5938 21.1665 27.5566 21.0355 27.4895C20.9044 27.4224 20.7898 27.3271 20.7 27.2104L18.3 24.0104C18.2064 23.8862 18.0853 23.7854 17.9461 23.7159C17.8069 23.6465 17.6535 23.6104 17.498 23.6104L15.51 23.6144C15.6634 23.6146 15.8146 23.6504 15.9518 23.7192C16.0889 23.7879 16.2081 23.8876 16.3 24.0104ZM43.132 22.6064L43.13 22.6024L43.068 22.6264L43.132 22.6064Z" fill="#71BC58"/>
<path d="M46.6781 17.8304L41.0001 15.6084L41.6001 16.6264L44.6781 17.8304C47.3524 18.877 49.7023 20.6123 51.4895 22.8603C53.2766 25.1083 54.4374 27.789 54.8541 30.6304C54.8795 30.8358 54.8383 31.0439 54.7363 31.2239C54.6344 31.404 54.4772 31.5465 54.2881 31.6304C54.7861 31.6424 55.2821 31.6624 55.7641 31.7264C55.9121 31.7444 56.0624 31.7284 56.2033 31.6794C56.3442 31.6305 56.4721 31.5499 56.5771 31.444C56.6821 31.338 56.7614 31.2094 56.8091 31.0681C56.8568 30.9267 56.8715 30.7763 56.8521 30.6284C56.4362 27.7872 55.276 25.1066 53.4891 22.8589C51.7022 20.6111 49.3523 18.8762 46.6781 17.8304ZM50.0781 31.7464C44.6561 32.5224 40.1861 36.8024 39.2161 42.1924C39.1255 42.6952 39.0627 43.2027 39.0281 43.7124C39.0015 44.2222 38.7811 44.7025 38.4118 45.055C38.0426 45.4075 37.5525 45.6055 37.0421 45.6084H39.0421C39.5525 45.6055 40.0426 45.4075 40.4118 45.055C40.7811 44.7025 41.0015 44.2222 41.0281 43.7124C41.0621 43.2104 41.1241 42.7024 41.2161 42.1924C42.1861 36.8024 46.6541 32.5224 52.0781 31.7464C52.3921 31.7004 52.6981 31.7004 53.0101 31.6784C52.0332 31.5926 51.0499 31.6154 50.0781 31.7464ZM15.9981 28.7264L6.10006 24.2164C5.99475 24.4354 5.97471 24.6857 6.04385 24.9186C6.11299 25.1515 6.26635 25.3504 6.47406 25.4764L17.9981 30.7284C18.9681 31.1704 19.8681 31.7484 20.7001 32.4024C19.4881 30.8084 17.8381 29.5664 15.9981 28.7264Z" fill="#71BC58"/>
<path d="M29 41.6084H33H29Z" fill="#71BC58"/>
<path d="M29 41.6084H33" stroke="#71BC58" stroke-miterlimit="10" stroke-linecap="round" stroke-linejoin="round"/>
<path d="M50.298 19.8057C50.1131 20.389 50.0127 20.9958 50 21.6077C50.0057 23.2513 50.658 24.8267 51.816 25.9933C52.9739 27.1598 54.5444 27.8238 56.188 27.8417C55.108 24.6157 53.0492 21.8067 50.298 19.8057Z" fill="#D5E5F1"/>
<path d="M54 27.4017C54.682 27.6677 55.414 27.8337 56.186 27.8417C55.1066 24.6154 53.0476 21.8062 50.296 19.8057C50.1538 20.2866 50.064 20.7815 50.028 21.2817C51.7968 22.9958 53.1548 25.0881 54 27.4017Z" fill="#B0C4DA"/>
</svg>
