<svg viewBox="0 0 64 64" fill="none" xmlns="http://www.w3.org/2000/svg">
<path opacity="0.3" d="M44 56.8L62.6667 45.6L20 20L1.33337 31.2L44 56.8Z" fill="#262626"/>
<path d="M9.24003 31.424L15.9334 29.184L11.32 26L8.98669 28.704L9.24003 31.424Z" fill="#2D3134"/>
<path d="M34.8934 47.3918L41.5867 45.1518L36.96 41.9678L34.6267 44.6718L34.8934 47.3918Z" fill="#2D3134"/>
<path opacity="0.29" d="M9.24003 31.424L15.9334 29.184L11.32 26L8.98669 28.704L9.24003 31.424Z" fill="black"/>
<path opacity="0.29" d="M34.8934 47.3918L41.5867 45.1518L36.96 41.9678L34.6267 44.6718L34.8934 47.3918Z" fill="black"/>
<path d="M39.7867 44.2076C38.8934 43.6636 38.08 43.5996 37.48 43.9356L36.2134 44.7516C35.5734 45.1036 35.16 45.8876 35.16 47.0396C35.16 49.2636 36.6667 51.9836 38.52 53.0876C39.44 53.6316 40.2667 53.6956 40.88 53.3436C40.88 53.3436 42.1334 52.5436 42.2667 52.4476C42.8134 52.0636 43.1467 51.3116 43.1467 50.2716C43.1467 48.0316 41.64 45.3276 39.7867 44.2076Z" fill="#2D3134"/>
<path opacity="0.29" d="M40.92 53.3283C41.16 53.1843 42.1467 52.5443 42.2667 52.4483C42.8134 52.0643 43.1467 51.3123 43.1467 50.2723C43.1467 49.3763 42.9067 48.4003 42.4934 47.4883L41.2267 48.3043C41.64 49.2163 41.88 50.1923 41.88 51.0883C41.8934 52.1763 41.52 52.9603 40.92 53.3283Z" fill="black"/>
<path d="M41.8933 51.0878C41.8933 53.3118 40.3867 54.2238 38.5333 53.1038C36.68 51.9838 35.1733 49.2798 35.1733 47.0558C35.1733 44.8318 36.68 43.9198 38.5333 45.0398C40.3867 46.1438 41.8933 48.8638 41.8933 51.0878Z" fill="#2D3134"/>
<path d="M41.1466 50.6401C41.1466 52.3841 39.9733 53.0881 38.52 52.2241C37.0666 51.3601 35.8933 49.2321 35.8933 47.4881C35.8933 45.7441 37.0666 45.0401 38.52 45.9041C39.9733 46.7841 41.1466 48.8961 41.1466 50.6401Z" fill="#E5E5E5"/>
<path d="M40.2534 52.0479C40.6534 51.7759 40.8934 51.2479 40.8934 50.4959V50.3199L39.4268 50.0479L40.2534 52.0479Z" fill="#2D3134"/>
<path d="M39.0801 48.5758L40.6134 48.9758C40.2934 48.0638 39.7201 47.1678 39.0267 46.5918L39.0801 48.5758Z" fill="#2D3134"/>
<path d="M37.9734 47.9196L38.0267 45.9996C37.3334 45.7596 36.7601 45.9516 36.4401 46.4796L37.9734 47.9196Z" fill="#2D3134"/>
<path d="M36.16 47.4717V47.6477C36.16 48.3997 36.4 49.2157 36.8 49.9677L37.64 48.9757L36.16 47.4717Z" fill="#2D3134"/>
<path d="M38.5201 50.2715L37.6134 51.1515C37.8934 51.4555 38.2001 51.7115 38.5201 51.9035C38.8401 52.0955 39.1467 52.2075 39.4267 52.2235L38.5201 50.2715Z" fill="#2D3134"/>
<path opacity="0.11" d="M41.8933 51.0878C41.8933 53.3118 40.3867 54.2238 38.5333 53.1038C36.68 51.9838 35.1733 49.2798 35.1733 47.0558C35.1733 44.8318 36.68 43.9198 38.5333 45.0398C40.3867 46.1438 41.8933 48.8638 41.8933 51.0878Z" fill="black"/>
<path d="M14.16 28.7359C13.2667 28.1919 12.4533 28.1279 11.8533 28.4639L10.5867 29.2799C9.94666 29.6319 9.53333 30.4159 9.53333 31.5679C9.53333 33.7919 11.04 36.5119 12.8933 37.6159C13.8133 38.1599 14.64 38.2239 15.2533 37.8719C15.2533 37.8719 16.5067 37.0719 16.64 36.9759C17.1867 36.5919 17.52 35.8399 17.52 34.7999C17.5333 32.5599 16.0267 29.8559 14.16 28.7359Z" fill="#2D3134"/>
<path opacity="0.29" d="M15.3066 37.8556C15.5466 37.7116 16.5333 37.0716 16.6533 36.9756C17.2 36.5916 17.5333 35.8396 17.5333 34.7996C17.5333 33.9036 17.2933 32.9276 16.88 32.0156L15.6133 32.8316C16.0266 33.7436 16.2666 34.7196 16.2666 35.6156C16.2666 36.7036 15.8933 37.4716 15.3066 37.8556Z" fill="black"/>
<path d="M16.2666 35.5996C16.2666 37.8236 14.76 38.7356 12.9066 37.6156C11.0533 36.4956 9.54663 33.7916 9.54663 31.5676C9.54663 29.3436 11.0533 28.4316 12.9066 29.5516C14.76 30.6716 16.2666 33.3756 16.2666 35.5996Z" fill="#2D3134"/>
<path d="M15.5334 35.1684C15.5334 36.9124 14.36 37.6164 12.9067 36.7524C11.4534 35.8884 10.28 33.7604 10.28 32.0164C10.28 30.2724 11.4534 29.5684 12.9067 30.4324C14.36 31.2964 15.5334 33.4244 15.5334 35.1684Z" fill="#E5E5E5"/>
<path d="M14.64 36.5605C15.04 36.2885 15.28 35.7605 15.28 35.0085V34.8325L13.8134 34.5605L14.64 36.5605Z" fill="#2D3134"/>
<path d="M13.4534 33.0885L14.9867 33.4885C14.6667 32.5765 14.0934 31.6805 13.4 31.1045L13.4534 33.0885Z" fill="#2D3134"/>
<path d="M12.36 32.4323L12.4133 30.5123C11.72 30.2723 11.1467 30.4643 10.8267 30.9923L12.36 32.4323Z" fill="#2D3134"/>
<path d="M10.5466 31.9844V32.1604C10.5466 32.9124 10.7866 33.7284 11.1866 34.4804L12.0266 33.4884L10.5466 31.9844Z" fill="#2D3134"/>
<path d="M12.9067 34.8008L12 35.6808C12.28 35.9848 12.5867 36.2408 12.9067 36.4328C13.2267 36.6248 13.5333 36.7368 13.8133 36.7528L12.9067 34.8008Z" fill="#2D3134"/>
<path opacity="0.11" d="M16.2666 35.5996C16.2666 37.8236 14.76 38.7356 12.9066 37.6156C11.0533 36.4956 9.54663 33.7916 9.54663 31.5676C9.54663 29.3436 11.0533 28.4316 12.9066 29.5516C14.76 30.6716 16.2666 33.3756 16.2666 35.5996Z" fill="black"/>
<path d="M58.8 35.3602C56.2267 32.6082 45.1333 22.1442 43.28 20.4962C41.4267 18.8482 34.72 13.7922 30.2133 12.4002C25.7067 11.0082 25.1467 11.8242 24.2267 11.5842C23.3067 11.3442 20.5733 10.5762 16.5467 12.0642C14.8267 12.7042 12.7867 13.4082 11.12 15.2002C8.90667 17.5682 7.2 21.2482 6.37333 23.2482L6.2 23.9202C5.89333 25.1202 6.02667 26.4322 6.56 27.5042C7.01333 28.4162 7.58667 29.4722 8.01333 30.0482C8.38667 30.5442 8.84 31.0722 9.22667 31.5202V31.4082C9.22667 29.7122 10.0533 28.6242 11.3333 28.6242C11.84 28.6242 12.3867 28.8002 12.9467 29.1362C14.88 30.2882 16.44 33.1202 16.44 35.4402C16.44 35.7442 16.4133 36.0322 16.36 36.3042L34.88 47.4082C34.8667 47.2322 34.8533 47.0562 34.8533 46.8962C34.8533 45.2002 35.68 44.1122 36.96 44.1122C37.4667 44.1122 38.0133 44.2882 38.5733 44.6242C40.5067 45.7762 42.0667 48.6082 42.0667 50.9282C42.0667 51.2002 42.04 51.4402 42 51.6802L43.48 52.5602C43.48 52.5602 46.2533 53.4242 48.0267 53.2322C49.8 53.0402 53.4533 51.6002 56.3867 49.8562C59.32 48.1122 61.8 45.0402 61.8533 43.4402C61.88 42.8322 61.3733 38.1122 58.8 35.3602Z" fill="#F8EBCB"/>
<path d="M48.5067 25.9997C48.5067 25.9997 48.3467 24.6557 48.5067 24.3037C48.6667 23.9677 48.9467 23.4397 49.3067 23.8237C49.6667 24.2077 50.0667 25.3117 49.7067 26.3357C49.3467 27.3597 48.5067 25.9997 48.5067 25.9997Z" fill="#F8EBCB"/>
<path opacity="0.3" d="M7.83997 20.752C7.83997 20.752 16.4266 27.872 26.2933 34.24C36.16 40.608 41.3466 44.224 41.3466 44.224L35.2533 37.952L13.4 22.656L7.83997 20.752Z" fill="white"/>
<path d="M13.6133 22.8163L35.2399 37.9683C35.2399 37.9683 33.1466 26.9283 25.7599 22.4803C18.3733 18.0323 13.6133 22.8163 13.6133 22.8163Z" fill="#2D3134"/>
<path d="M22.6266 14.6236C25.5066 12.9916 27.8533 12.4956 27.8533 12.1596C27.8533 11.8236 20.4533 11.3916 15.88 14.1436C11.3066 16.8956 11.5333 19.2636 13.2666 19.0076C15 18.7516 17.32 18.5276 18.0533 18.0956C18.7866 17.6636 20.1733 16.0156 22.6266 14.6236Z" fill="#2D3134"/>
<path d="M13.1866 18.6403C13.0133 18.6403 12.6 18.5923 12.5333 18.2243C12.4266 17.6803 13.04 16.1603 16.1466 14.3043C19.5466 12.2723 24.3333 12.1123 25.72 12.1123C26.4266 12.1123 26.96 12.1443 27.32 12.1923C27.1333 12.2723 26.9333 12.3523 26.72 12.4323C25.76 12.8003 24.3066 13.3603 22.6933 14.2883C21.0533 15.2163 19.8533 16.2883 19.0666 16.9763C18.6533 17.3283 18.3333 17.6163 18.1066 17.7603C17.5466 18.0963 15.8133 18.3203 14.2933 18.5283C13.9866 18.5763 13.68 18.6083 13.4 18.6403H13.1866Z" fill="#656565"/>
<path d="M32.5866 27.1197C32.32 27.9997 36.6 36.6717 37.9333 37.1037C39.2533 37.5357 43.24 37.3917 47.1733 34.7837C51.1066 32.1757 51.84 30.1597 51.64 29.4237C51.44 28.7037 43.88 21.0717 42.64 20.9277C41.4 20.7837 32.9066 26.0477 32.5866 27.1197Z" fill="#2D3134"/>
<path opacity="0.2" d="M43.08 45.9196C43.08 45.9196 43.64 45.0236 45.1466 44.8156C46.6533 44.6236 48.4933 44.7996 49.8666 46.2716C50.8933 47.3756 51.2666 47.8396 51.2666 47.8396C51.2666 47.8396 48.36 48.9756 46.92 48.7356C45.4933 48.4956 43.08 45.9196 43.08 45.9196Z" fill="white"/>
<path d="M43.36 45.6162C43.36 45.6162 43.88 44.7842 45.2667 44.6082C46.6533 44.4322 48.36 44.5922 49.6267 45.9522C50.5733 46.9602 50.92 47.3922 50.92 47.3922C50.92 47.3922 48.24 48.4482 46.9066 48.2242C45.5733 48.0002 43.36 45.6162 43.36 45.6162Z" fill="#E5E5E5"/>
<path opacity="0.2" d="M59.2533 42.7844C59.2533 42.7844 61.28 40.5124 61.1733 39.8724C61.0666 39.2164 59.5066 35.9844 59.3066 36.4644C59.1066 36.9444 58.68 37.7124 58.84 38.3684C59 39.0244 59.2933 42.2084 59.2533 42.7844Z" fill="white"/>
<path d="M59.24 42.3362C59.24 42.3362 61.1466 40.0642 61.0533 39.4242C60.9466 38.7682 59.3866 35.5362 59.1866 36.0162C58.9866 36.4962 58.56 37.2642 58.72 37.9202C58.88 38.5602 59.28 41.7442 59.24 42.3362Z" fill="#E5E5E5"/>
<path d="M47.1601 51.9196L47.0934 52.6236C47.0934 52.6236 53.0534 51.7116 56.8 48.9436C60.5334 46.1756 61.44 44.0156 61.44 44.0156C61.44 44.0156 58.56 47.7596 55.04 49.4876C51.3467 51.2796 47.1601 51.9196 47.1601 51.9196Z" fill="#2D3134"/>
<path d="M50.7867 28.8317C50.1067 28.0477 48.8134 26.6717 47.1734 25.0877C44.5067 22.4957 42.9467 21.2957 42.5734 21.2637H42.56C42.0134 21.2637 39.84 22.3517 37.4134 23.8557C34.6267 25.5677 33.1334 26.7837 32.92 27.1517C32.9467 27.5997 33.68 29.5037 35.04 32.1277C36.5467 35.0237 37.64 36.4637 38 36.5917C38.2 36.6557 38.4534 36.7037 38.7467 36.7357C40.5067 36.4157 43.5467 35.5997 46.5067 33.5037C49.0134 31.7277 50.2134 30.0157 50.7867 28.8317Z" fill="#656565"/>
<path d="M15.44 22.2083L15.16 23.2163L23.48 29.0403L24.8134 22.6083L24.7734 22.5443C23.0134 21.6163 21.28 21.1523 19.5867 21.1523C17.8134 21.1683 16.4 21.6963 15.44 22.2083Z" fill="#656565"/>
<path d="M32.9734 35.6962L33.3067 33.2482C33.16 32.8802 33.0134 32.5122 32.84 32.1282C31.5867 29.2802 29.3734 25.4562 25.8667 23.2002L25.04 30.1282L32.9734 35.6962Z" fill="#656565"/>
<path opacity="0.2" d="M16.8267 27.1361C16.8267 27.6001 16.5067 27.7921 16.12 27.5681C15.7333 27.3281 15.4133 26.7681 15.4133 26.2881C15.4133 25.8081 15.7333 25.6321 16.12 25.8561C16.5067 26.0961 16.8267 26.6561 16.8267 27.1361Z" fill="black"/>
<path d="M14.9867 25.6963L14.6801 26.1123C14.6801 26.1123 16.9067 27.8563 17.1067 27.5043C17.3201 27.1683 14.9867 25.6963 14.9867 25.6963Z" fill="#F8EBCB"/>
<path opacity="0.2" d="M26.3199 33.6157C26.3199 34.0797 26 34.2717 25.6133 34.0477C25.2266 33.8077 24.9066 33.2477 24.9066 32.7677C24.9066 32.3037 25.2266 32.1117 25.6133 32.3357C26 32.5757 26.3199 33.1357 26.3199 33.6157Z" fill="black"/>
<path d="M24.48 32.1602L24.1733 32.5762C24.1733 32.5762 26.4 34.3202 26.6 33.9682C26.8133 33.6322 24.48 32.1602 24.48 32.1602Z" fill="#F8EBCB"/>
<path opacity="0.2" d="M35.1867 37.9517C35.1867 37.9677 34.9467 39.0717 34.7467 40.4157C34.56 41.6317 34.4533 45.6637 34.4267 46.3837L23.8133 39.9357C23.8 39.6797 23.6533 37.2957 23.6533 35.1197C23.6533 32.8317 24.1333 30.2877 24.1333 30.2717L24.0133 30.2397C24.0133 30.2717 23.5333 32.8317 23.5333 35.1197C23.5333 37.1357 23.6533 39.3437 23.6933 39.8557L18.4133 36.6557C18.2933 36.4637 17.0133 34.3677 15.76 31.1837C14.4667 27.9037 14.7733 23.7437 14.7867 23.6957L14.6667 23.6797C14.6667 23.7277 14.3467 27.9197 15.6533 31.2477C16.9733 34.5757 18.32 36.7357 18.3333 36.7517L18.3467 36.7677L34.5333 46.6237V46.5117C34.5333 46.4637 34.6533 41.7757 34.8533 40.4477C35.0533 39.1197 35.2933 37.9997 35.2933 37.9997L35.1867 37.9517Z" fill="black"/>
<path opacity="0.3" d="M47.8801 45.7916C47.8801 46.3676 47.4934 47.0556 47.0134 47.3436C46.5334 47.6316 46.1467 47.3916 46.1467 46.8316C46.1467 46.2556 46.5334 45.5676 47.0134 45.2796C47.4934 44.9916 47.8801 45.2156 47.8801 45.7916Z" fill="black"/>
<path opacity="0.3" d="M49.2133 46.2078C49.2133 46.6078 48.9466 47.0878 48.6133 47.2958C48.28 47.4878 48.0133 47.3278 48.0133 46.9278C48.0133 46.5278 48.28 46.0478 48.6133 45.8398C48.9466 45.6478 49.2133 45.8078 49.2133 46.2078Z" fill="black"/>
<path d="M45.9599 46.7364C45.9599 46.9444 45.8133 47.2164 45.6399 47.3124C45.4666 47.4244 45.3199 47.3284 45.3199 47.1204C45.3199 46.9124 45.4666 46.6404 45.6399 46.5444C45.8133 46.4324 45.9599 46.5124 45.9599 46.7364Z" fill="white"/>
<path opacity="0.4" d="M47.52 46.2239C47.52 46.5119 47.32 46.8639 47.0933 47.0079C46.8533 47.1519 46.6666 47.0399 46.6666 46.7519C46.6666 46.4639 46.8666 46.1119 47.0933 45.9679C47.32 45.8239 47.52 45.9359 47.52 46.2239Z" fill="white"/>
<path opacity="0.4" d="M48.9867 46.4961C48.9867 46.7041 48.84 46.9761 48.6667 47.0721C48.4933 47.1841 48.3467 47.0881 48.3467 46.8801C48.3467 46.6721 48.4933 46.4001 48.6667 46.3041C48.84 46.1921 48.9867 46.2881 48.9867 46.4961Z" fill="white"/>
<path d="M45.48 45.4405C45.48 45.6485 45.3333 45.9205 45.16 46.0165C44.9866 46.1285 44.84 46.0325 44.84 45.8245C44.84 45.6165 44.9866 45.3445 45.16 45.2485C45.3333 45.1365 45.48 45.2325 45.48 45.4405Z" fill="white"/>
<path d="M59.7334 37.0235C59.7334 37.2315 59.5867 37.5035 59.4134 37.5995C59.24 37.7115 59.0934 37.6155 59.0934 37.4075C59.0934 37.1995 59.24 36.9275 59.4134 36.8315C59.5867 36.7195 59.7334 36.7995 59.7334 37.0235Z" fill="white"/>
<path d="M60.3334 38.0323C60.3334 38.2403 60.1867 38.5123 60.0134 38.6083C59.84 38.7203 59.6934 38.6243 59.6934 38.4163C59.6934 38.2083 59.84 37.9363 60.0134 37.8403C60.1867 37.7283 60.3334 37.8243 60.3334 38.0323Z" fill="white"/>
<path opacity="0.3" d="M60.5199 38.7044C60.5199 39.2004 60.1866 39.7924 59.7733 40.0324C59.3599 40.2724 59.0266 40.0804 59.0266 39.5844C59.0266 39.0884 59.3599 38.4964 59.7733 38.2564C60.1866 38.0164 60.5199 38.2244 60.5199 38.7044Z" fill="black"/>
<path opacity="0.4" d="M60.08 39.2316C60.08 39.4876 59.9067 39.7916 59.7067 39.9196C59.4934 40.0476 59.3334 39.9356 59.3334 39.6956C59.3334 39.4556 59.5067 39.1356 59.7067 39.0076C59.9067 38.8796 60.08 38.9756 60.08 39.2316Z" fill="white"/>
<path opacity="0.3" d="M59.92 40.0476C59.92 39.6476 59.6534 39.4876 59.32 39.6796C59.2134 39.7436 59.12 39.8236 59.04 39.9356C59.0934 40.3676 59.1467 40.8156 59.1867 41.1996C59.2267 41.1836 59.28 41.1676 59.3334 41.1356C59.6534 40.9436 59.92 40.4476 59.92 40.0476Z" fill="black"/>
<path opacity="0.3" d="M43.36 45.6002C44.0133 45.5362 45.8533 45.4242 47.0133 45.7602C48.1733 46.0962 50.1866 47.0242 50.9066 47.3762C50.8266 47.2802 50.4533 46.8322 49.6267 45.9522C48.36 44.5922 46.6533 44.4322 45.2667 44.6082C44 44.7682 43.4533 45.4722 43.36 45.6002Z" fill="black"/>
<path d="M32.2266 34.0645C32.2266 34.0645 33.2266 34.6405 33.68 35.3605C34.12 36.0805 34.12 36.4645 34.12 36.4645C34.12 36.4645 31.3466 37.1845 29.9733 36.1285C28.52 34.9925 32.2266 34.0645 32.2266 34.0645Z" fill="#F8EBCB"/>
<path d="M39.52 36.8481L40.0267 36.8001L44.6934 34.0801L44.9467 33.5201L47.7867 31.9361L47.6667 31.6641L42.24 34.5601L42.4 34.8001L44.5067 33.6801L44.3867 33.8401L39.8267 36.4641L39.52 36.8481Z" fill="#2D3134"/>
<path d="M44.4534 35.344H44.8934L48.6134 32.032L49.0667 30.752L50.4934 28.576L50.4 28.416L47.72 32.08L47.8267 32.272L48.5467 31.504L48.3467 31.936L44.5734 35.072L44.4534 35.344Z" fill="#2D3134"/>
<path d="M50.08 45.9041L51.6266 47.5681C51.6266 47.5681 53.8666 47.0561 55.8666 45.8241C57.8666 44.5921 59.0666 42.9281 59.0666 42.9281L58.9066 40.4961C58.9066 40.4961 58 42.4641 55.3866 44.0161C53.0666 45.4081 50.08 45.9041 50.08 45.9041Z" fill="#2D3134"/>
<path opacity="0.29" d="M56.2934 49.4238C59.2134 47.6638 61.7067 44.6878 61.76 43.0878C61.7734 42.8158 61.7867 42.3678 61.4667 41.1038C61.44 40.9918 61.32 40.9758 61.2667 41.0718C60.24 42.8318 58.4934 45.1198 55.7734 46.6878C52.9467 48.3198 49.48 49.7118 46.8134 49.5518C46.1867 49.5198 46.08 50.2718 46.0267 51.4558C46 52.2238 46.5334 52.8638 47.1734 52.7838C49.4667 52.5118 53.1467 51.3118 56.2934 49.4238Z" fill="black"/>
<path opacity="0.11" d="M43.7599 47.3276C42.8266 46.0636 37.4933 39.3436 36.1066 36.7196C34.2933 33.3116 31.3333 24.9756 25.8799 21.8556C20.4133 18.7356 14.2266 20.0636 12.3599 20.2236C11.2266 20.3036 9.46661 19.8076 8.23995 19.3916C7.43995 20.8476 6.81328 22.2556 6.39995 23.2636L6.22661 23.9356C5.91995 25.1356 6.05328 26.4476 6.58661 27.5196C7.03995 28.4316 7.61328 29.4876 8.03995 30.0636C8.41328 30.5596 8.86661 31.0876 9.25328 31.5356V31.4236C9.25328 29.7276 10.0799 28.6396 11.3599 28.6396C11.8666 28.6396 12.4133 28.8156 12.9733 29.1516C14.9066 30.3036 16.4666 33.1356 16.4666 35.4556C16.4666 35.7596 16.4399 36.0476 16.3866 36.3196L34.9066 47.4236C34.8933 47.2476 34.8799 47.0716 34.8799 46.9116C34.8799 45.2156 35.7066 44.1276 36.9866 44.1276C37.4933 44.1276 38.0399 44.3036 38.5999 44.6396C40.5333 45.7916 42.0933 48.6236 42.0933 50.9436C42.0933 51.2156 42.0666 51.4556 42.0266 51.6956L43.5066 52.5756C43.5066 52.5756 44.2799 52.8156 45.2666 53.0236C45.0266 50.6716 44.5333 48.3836 43.7599 47.3276Z" fill="black"/>
<path d="M6.58672 23.7598C6.58672 23.7598 7.42672 21.1838 7.89339 20.3838C8.36005 19.5838 8.88005 18.8638 8.88005 18.8638L8.73339 18.3838C8.73339 18.3838 7.74672 18.7998 7.57339 19.1518C7.38672 19.5198 6.38672 23.2478 6.38672 23.2478L6.58672 23.7598Z" fill="#CC291F"/>
<path opacity="0.2" d="M50.5333 29.2957C50.6266 29.1357 50.7066 28.9757 50.7733 28.8317C50.0933 28.0477 48.8 26.6717 47.16 25.0877C44.4933 22.4957 42.9333 21.2957 42.56 21.2637H42.5466C42 21.2637 39.8266 22.3517 37.3999 23.8557C34.6133 25.5677 33.1199 26.7837 32.9066 27.1517C32.9199 27.2957 32.9999 27.6157 33.1599 28.0477C38.8533 25.8397 45.0799 26.2717 50.5333 29.2957Z" fill="black"/>
<path d="M54.4534 48.5116V50.8476L57.96 48.7516V46.4316L54.4534 48.5116Z" fill="#E5E5E5"/>
<path opacity="0.2" d="M59.24 42.3362C59.24 42.3362 61.1466 40.0642 61.0533 39.4242C60.9466 38.7682 59.3866 35.5362 59.1866 36.0162C58.9866 36.4962 58.56 37.2642 58.72 37.9202C58.88 38.5602 59.28 41.7442 59.24 42.3362Z" fill="black"/>
<path d="M32.7733 27.8243C32.3466 26.5603 29.3866 22.5283 26.1066 20.5923C21.9733 18.1603 18.3733 18.1603 17.6399 18.2883L17.6133 18.0803C18.3599 17.9523 22.0133 17.9523 26.1866 20.4003C27.6399 21.2483 29.2133 22.6403 30.6399 24.3043C31.7733 25.6163 32.6933 27.0083 32.9466 27.7443L32.7733 27.8243Z" fill="#2D3134"/>
<path d="M43.3467 21.6L43.3333 21.584C42 20.416 38.44 17.312 35.16 15.392C31.04 12.976 27.8267 12.224 27.12 12.224V12C27.84 12 31.0933 12.752 35.24 15.2C38.5333 17.136 42.0933 20.24 43.44 21.408L43.4533 21.424L43.3467 21.6Z" fill="#2D3134"/>
</svg>
