<svg xmlns="http://www.w3.org/2000/svg" xmlns:xlink="http://www.w3.org/1999/xlink" width="1080" zoomAndPan="magnify" viewBox="0 0 810 809.999993" height="1080" preserveAspectRatio="xMidYMid meet" version="1.0"><defs><g/><clipPath id="fb1b99798e"><path d="M 0 0 L 380 0 L 380 168 L 0 168 Z M 0 0 " clip-rule="nonzero"/></clipPath><clipPath id="d1b488ba68"><path d="M -416.765625 -116.992188 L 244.632812 -511.75 L 518.3125 -53.214844 L -143.085938 341.546875 Z M -416.765625 -116.992188 " clip-rule="nonzero"/></clipPath><clipPath id="93880147ba"><path d="M -416.765625 -116.992188 L 244.632812 -511.75 L 518.3125 -53.214844 L -143.085938 341.546875 Z M -416.765625 -116.992188 " clip-rule="nonzero"/></clipPath><clipPath id="311b1ee124"><path d="M 0 520 L 810 520 L 810 810 L 0 810 Z M 0 520 " clip-rule="nonzero"/></clipPath><clipPath id="344852ebf0"><path d="M -339.027344 806.289062 L 853.757812 232.199219 L 1251.882812 1059.375 L 59.097656 1633.464844 Z M -339.027344 806.289062 " clip-rule="nonzero"/></clipPath><clipPath id="038e0150b5"><path d="M -339.027344 806.289062 L 853.757812 232.199219 L 1251.882812 1059.375 L 59.097656 1633.464844 Z M -339.027344 806.289062 " clip-rule="nonzero"/></clipPath><clipPath id="5e3394a50f"><path d="M 81 352.609375 L 436 352.609375 L 436 728 L 81 728 Z M 81 352.609375 " clip-rule="nonzero"/></clipPath></defs><g clip-path="url(#fb1b99798e)"><g clip-path="url(#d1b488ba68)"><g clip-path="url(#93880147ba)"><path fill="#1fc39e" d="M -224.757812 -229.554688 C -226.460938 -228.867188 -228.234375 -228.285156 -229.882812 -227.449219 C -242.679688 -220.964844 -253.328125 -211.570312 -257.519531 -197.960938 C -260.695312 -186.351562 -262.230469 -174.535156 -262.125 -162.503906 C -261.804688 -150.816406 -260.820312 -139.183594 -259.167969 -127.609375 C -257.4375 -109.628906 -253.722656 -91.695312 -256.644531 -73.546875 C -258 -61.945312 -260.359375 -50.554688 -263.726562 -39.371094 C -268.644531 -27.128906 -274.25 -15.210938 -280.542969 -3.613281 C -286.160156 7.945312 -290.375 19.507812 -285.238281 32.628906 C -284.25 35.160156 -286.058594 38.90625 -286.890625 42.007812 C -287.808594 45.441406 -289.5 48.703125 -290.136719 52.179688 C -292.214844 63.746094 -289.027344 74.78125 -285.992188 85.742188 C -281.789062 100.871094 -277.667969 116.199219 -266.453125 127.988281 C -259.15625 135.90625 -251.359375 143.296875 -243.0625 150.164062 C -239.570312 153.089844 -235.839844 155.671875 -231.867188 157.902344 C -227.894531 160.136719 -223.75 161.984375 -219.433594 163.445312 C -215.117188 164.90625 -210.703125 165.957031 -206.191406 166.597656 C -201.679688 167.238281 -197.144531 167.453125 -192.589844 167.25 C -161.023438 165.578125 -131.902344 155.203125 -104.453125 139.671875 C -89.980469 130.855469 -74.789062 123.53125 -58.878906 117.703125 C -55.109375 116.363281 -51.289062 115.195312 -47.410156 114.207031 C -43.535156 113.21875 -39.625 112.40625 -35.675781 111.777344 C -31.726562 111.144531 -27.757812 110.695312 -23.765625 110.429688 C -19.773438 110.160156 -15.78125 110.078125 -11.785156 110.175781 C -7.785156 110.277344 -3.800781 110.558594 0.171875 111.023438 C 4.144531 111.488281 8.085938 112.132812 11.996094 112.960938 C 15.910156 113.785156 19.773438 114.789062 23.59375 115.972656 C 27.414062 117.152344 31.171875 118.507812 34.867188 120.03125 C 51.082031 126.625 67.40625 132.894531 83.789062 139.058594 C 103.773438 146.527344 124.390625 151.246094 145.640625 153.210938 C 147.898438 153.484375 150.164062 153.605469 152.4375 153.566406 C 154.714844 153.53125 156.976562 153.335938 159.222656 152.988281 C 161.472656 152.640625 163.6875 152.144531 165.867188 151.492188 C 168.046875 150.839844 170.171875 150.042969 172.242188 149.101562 C 174.316406 148.160156 176.3125 147.082031 178.234375 145.863281 C 180.160156 144.648438 181.988281 143.304688 183.730469 141.839844 C 185.46875 140.371094 187.097656 138.792969 188.621094 137.101562 C 190.144531 135.414062 191.546875 133.625 192.824219 131.742188 C 206.234375 113.429688 215.640625 92.9375 215.476562 69.441406 C 215.3125 61.503906 214.710938 53.59375 213.675781 45.722656 C 212.859375 36.527344 211.472656 27.421875 209.519531 18.40625 C 204.824219 -0.601562 199.546875 -19.355469 197.664062 -39.046875 C 197.085938 -44.46875 196.921875 -49.898438 197.175781 -55.34375 C 197.429688 -60.785156 198.09375 -66.179688 199.171875 -71.523438 C 200.25 -76.863281 201.726562 -82.09375 203.605469 -87.210938 C 205.480469 -92.332031 207.734375 -97.277344 210.367188 -102.050781 C 211.710938 -105.214844 213.660156 -107.953125 216.210938 -110.261719 C 223.210938 -115.199219 227.402344 -122.347656 232.632812 -128.742188 C 239.054688 -136.222656 246.066406 -143.101562 253.667969 -149.378906 C 261.269531 -155.660156 269.351562 -161.246094 277.910156 -166.136719 C 293.285156 -175.527344 307.914062 -185.957031 321.800781 -197.425781 C 335.6875 -208.898438 348.691406 -221.296875 360.8125 -234.617188 C 364.421875 -238.441406 367.574219 -242.609375 370.273438 -247.117188 C 372.972656 -251.628906 375.152344 -256.375 376.8125 -261.363281 C 377.519531 -263.238281 378.066406 -265.15625 378.449219 -267.125 C 378.832031 -269.089844 379.046875 -271.074219 379.09375 -273.078125 C 379.140625 -275.082031 379.019531 -277.074219 378.726562 -279.054688 C 378.433594 -281.035156 377.976562 -282.980469 377.355469 -284.882812 C 375.375 -290.246094 372.746094 -295.269531 369.464844 -299.953125 C 366.183594 -304.636719 362.359375 -308.828125 357.996094 -312.519531 C 343.484375 -325.21875 326.097656 -332.191406 307.851562 -336.742188 C 293.058594 -340.519531 278.03125 -342.71875 262.773438 -343.335938 C 247.511719 -343.953125 232.355469 -342.980469 217.300781 -340.410156 C 205.136719 -338.472656 193.289062 -335.335938 181.761719 -331 C 170.230469 -326.664062 159.25 -321.222656 148.824219 -314.667969 C 126.167969 -299.871094 102.804688 -286.292969 78.730469 -273.941406 C 58.097656 -264.308594 36.941406 -256.019531 15.253906 -249.078125 C 2.070312 -244.925781 -11.304688 -241.523438 -24.871094 -238.875 C -30.023438 -238.003906 -35.214844 -237.550781 -40.4375 -237.511719 C -43.503906 -237.328125 -46.640625 -237.8125 -49.664062 -237.367188 C -72.769531 -234.003906 -95.492188 -237.304688 -118.3125 -240.484375 C -132.242188 -242.777344 -146.269531 -243.871094 -160.390625 -243.773438 C -182.558594 -243.046875 -204.609375 -240.222656 -224.757812 -229.554688 Z M -224.757812 -229.554688 " fill-opacity="1" fill-rule="nonzero"/></g></g></g><g clip-path="url(#311b1ee124)"><g clip-path="url(#344852ebf0)"><g clip-path="url(#038e0150b5)"><path fill="#1fc39e" d="M 6.9375 643.117188 C 3.914062 644.039062 0.792969 644.757812 -2.160156 645.9375 C -25.058594 655.070312 -44.730469 669.515625 -53.992188 692.171875 C -61.210938 711.554688 -65.652344 731.550781 -67.320312 752.164062 C -68.5625 772.226562 -68.664062 792.292969 -67.617188 812.367188 C -67.410156 843.417969 -63.804688 874.691406 -71.589844 905.316406 C -75.6875 924.964844 -81.476562 944.105469 -88.957031 962.734375 C -99.253906 982.9375 -110.683594 1002.480469 -123.234375 1021.367188 C -134.625 1040.296875 -143.609375 1059.441406 -136.832031 1082.695312 C -135.527344 1087.183594 -139.203125 1093.316406 -141.101562 1098.5 C -143.195312 1104.234375 -146.597656 1109.558594 -148.214844 1115.410156 C -153.550781 1134.894531 -149.785156 1154.285156 -146.277344 1173.515625 C -141.402344 1200.0625 -136.695312 1226.941406 -119.3125 1248.851562 C -108.035156 1263.53125 -95.820312 1277.386719 -82.671875 1290.414062 C -79.914062 1293.183594 -77.035156 1295.820312 -74.03125 1298.320312 C -71.027344 1300.820312 -67.917969 1303.179688 -64.695312 1305.390625 C -61.476562 1307.601562 -58.15625 1309.660156 -54.746094 1311.566406 C -51.332031 1313.46875 -47.839844 1315.210938 -44.265625 1316.792969 C -40.691406 1318.371094 -37.050781 1319.78125 -33.34375 1321.023438 C -29.636719 1322.265625 -25.882812 1323.332031 -22.078125 1324.226562 C -18.273438 1325.117188 -14.433594 1325.832031 -10.5625 1326.371094 C -6.691406 1326.90625 -2.804688 1327.261719 1.101562 1327.4375 C 55.398438 1329.433594 106.839844 1316.152344 156.210938 1293.78125 C 182.335938 1280.914062 209.46875 1270.714844 237.601562 1263.183594 C 244.257812 1261.46875 250.976562 1260.058594 257.761719 1258.960938 C 264.550781 1257.863281 271.371094 1257.078125 278.226562 1256.605469 C 285.085938 1256.132812 291.949219 1255.972656 298.820312 1256.128906 C 305.695312 1256.289062 312.542969 1256.757812 319.371094 1257.542969 C 326.199219 1258.328125 332.976562 1259.425781 339.707031 1260.832031 C 346.433594 1262.238281 353.082031 1263.949219 359.652344 1265.96875 C 366.222656 1267.984375 372.6875 1270.296875 379.042969 1272.910156 C 385.402344 1275.519531 391.628906 1278.414062 397.71875 1281.59375 C 424.460938 1295.378906 451.445312 1308.621094 478.542969 1321.699219 C 495.003906 1329.59375 511.914062 1336.367188 529.273438 1342.019531 C 546.632812 1347.667969 564.292969 1352.144531 582.246094 1355.449219 C 584.15625 1355.855469 586.078125 1356.199219 588.011719 1356.472656 C 589.945312 1356.75 591.886719 1356.957031 593.832031 1357.101562 C 595.78125 1357.242188 597.730469 1357.320312 599.683594 1357.328125 C 601.636719 1357.339844 603.585938 1357.28125 605.535156 1357.15625 C 607.484375 1357.03125 609.425781 1356.84375 611.363281 1356.585938 C 613.300781 1356.328125 615.222656 1356.003906 617.136719 1355.617188 C 619.050781 1355.226562 620.949219 1354.773438 622.832031 1354.253906 C 624.714844 1353.734375 626.578125 1353.152344 628.421875 1352.503906 C 630.261719 1351.859375 632.082031 1351.148438 633.875 1350.378906 C 635.671875 1349.605469 637.4375 1348.773438 639.171875 1347.882812 C 640.910156 1346.992188 642.617188 1346.039062 644.289062 1345.03125 C 645.960938 1344.023438 647.597656 1342.957031 649.195312 1341.835938 C 650.792969 1340.71875 652.355469 1339.542969 653.871094 1338.316406 C 655.390625 1337.089844 656.867188 1335.808594 658.296875 1334.480469 C 659.730469 1333.152344 661.113281 1331.777344 662.453125 1330.355469 C 663.789062 1328.929688 665.074219 1327.464844 666.3125 1325.953125 C 692.085938 1296.660156 711.328125 1263.023438 714.648438 1222.773438 C 715.585938 1209.152344 715.777344 1195.523438 715.214844 1181.882812 C 715.222656 1166.019531 714.25 1150.21875 712.285156 1134.476562 C 707.167969 1101.210938 701.007812 1068.292969 700.808594 1034.285156 C 700.652344 1024.917969 701.207031 1015.59375 702.476562 1006.3125 C 703.746094 997.03125 705.710938 987.902344 708.375 978.917969 C 711.042969 969.9375 714.371094 961.210938 718.371094 952.738281 C 722.367188 944.265625 726.988281 936.144531 732.226562 928.375 C 735.011719 923.164062 738.765625 918.777344 743.488281 915.214844 C 756.230469 907.839844 764.5 896.246094 774.4375 886.105469 C 786.578125 874.285156 799.636719 863.585938 813.613281 854.003906 C 827.589844 844.425781 842.28125 836.105469 857.683594 829.042969 C 885.441406 815.335938 912.085938 799.730469 937.617188 782.226562 C 963.152344 764.726562 987.316406 745.503906 1010.109375 724.558594 C 1016.871094 718.566406 1022.90625 711.917969 1028.21875 704.609375 C 1033.53125 697.304688 1037.988281 689.511719 1041.597656 681.230469 C 1043.101562 678.128906 1044.328125 674.925781 1045.289062 671.617188 C 1046.246094 668.3125 1046.917969 664.945312 1047.304688 661.523438 C 1047.691406 658.101562 1047.785156 654.671875 1047.589844 651.234375 C 1047.398438 647.796875 1046.914062 644.398438 1046.140625 641.042969 C 1044.863281 636.320312 1043.289062 631.695312 1041.414062 627.175781 C 1039.539062 622.652344 1037.382812 618.269531 1034.945312 614.027344 C 1032.503906 609.78125 1029.804688 605.710938 1026.839844 601.816406 C 1023.878906 597.921875 1020.679688 594.230469 1017.238281 590.746094 C 994.34375 566.773438 965.652344 552.164062 935.121094 541.5625 C 922.78125 537.203125 910.25 533.5 897.519531 530.453125 C 884.792969 527.40625 871.941406 525.035156 858.964844 523.335938 C 845.988281 521.636719 832.957031 520.621094 819.871094 520.289062 C 806.789062 519.957031 793.722656 520.308594 780.675781 521.347656 C 770.140625 522.070312 759.671875 523.320312 749.265625 525.097656 C 738.859375 526.875 728.566406 529.175781 718.394531 531.992188 C 708.21875 534.808594 698.210938 538.128906 688.371094 541.953125 C 678.53125 545.777344 668.90625 550.089844 659.5 554.886719 C 618.449219 576.734375 576.371094 596.378906 533.265625 613.828125 C 496.46875 627.144531 458.976562 638.078125 420.789062 646.625 C 397.582031 651.707031 374.164062 655.472656 350.535156 657.921875 C 341.582031 658.621094 332.628906 658.601562 323.679688 657.859375 C 318.40625 657.703125 313.109375 656.390625 307.863281 656.6875 C 267.796875 658.890625 229.40625 649.738281 190.828125 640.785156 C 167.332031 634.71875 143.492188 630.683594 119.304688 628.679688 C 81.246094 626.511719 43.0625 627.953125 6.9375 643.117188 Z M 6.9375 643.117188 " fill-opacity="1" fill-rule="nonzero"/></g></g></g><path fill="#243762" d="M 353.269531 565.601562 L 372.277344 565.601562 L 372.277344 529.125 L 373.023438 529.125 L 373.023438 527.164062 L 372.277344 527.164062 L 372.277344 487.976562 L 373.023438 487.976562 L 373.023438 480.140625 L 370.992188 480.140625 C 370.953125 480.152344 370.910156 480.160156 370.871094 480.171875 L 370.75 479.429688 C 371.648438 479.128906 372.277344 478.257812 372.277344 477.308594 C 372.277344 476.09375 371.273438 475.066406 370.089844 475.066406 L 366.097656 475.066406 L 366.097656 429.378906 C 366.097656 416.507812 352.234375 405.355469 345.429688 405.324219 L 343.308594 405.320312 L 343.105469 404.894531 C 342.855469 404.378906 342.351562 404.058594 341.785156 404.058594 L 337.957031 404.050781 L 337.652344 403.710938 L 337.519531 403.578125 C 336.6875 402.742188 335.496094 402.285156 334.175781 402.285156 C 332.773438 402.285156 331.445312 402.808594 330.535156 403.71875 L 328.605469 405.652344 L 328.167969 405.507812 C 326.699219 405.023438 325.136719 404.777344 323.527344 404.777344 C 319.710938 404.777344 316.042969 406.175781 313.460938 408.609375 L 312.199219 409.796875 L 312.199219 376.179688 L 298.785156 376.179688 C 298.664062 375.917969 298.527344 375.667969 298.367188 375.433594 C 297.550781 374.261719 296.246094 373.472656 294.75 373.472656 L 294.351562 373.472656 L 294.351562 372.34375 C 294.351562 370.902344 293.242188 369.554688 291.800781 369.554688 L 291.144531 369.554688 C 289.703125 369.554688 288.480469 370.902344 288.480469 372.34375 L 288.480469 373.472656 L 288.195312 373.472656 C 286.699219 373.472656 285.351562 374.261719 284.503906 375.433594 C 284.335938 375.667969 284.195312 375.917969 284.066406 376.179688 L 211.90625 376.179688 L 211.90625 490.285156 L 310.21875 490.285156 L 309.96875 491.03125 L 303.761719 509.488281 L 303.507812 510.238281 L 287.960938 510.238281 L 287.960938 523.8125 L 287.214844 523.8125 L 263.078125 523.816406 C 262.976562 523.925781 262.84375 524.003906 262.65625 524.023438 C 262.378906 524.054688 262.089844 524.074219 261.800781 524.085938 L 262.507812 523.335938 C 262.507812 523.332031 262.667969 522.898438 261.886719 521.320312 L 261.667969 520.890625 C 261.554688 520.679688 261.433594 520.460938 261.300781 520.234375 L 261.234375 520.125 C 261.195312 520.058594 261.148438 519.988281 261.109375 519.917969 C 261.632812 520.269531 262.125 520.625 262.554688 520.988281 C 262.558594 520.988281 262.558594 520.992188 262.5625 520.992188 C 262.53125 520.933594 262.5 520.871094 262.46875 520.808594 C 262.421875 520.722656 262.378906 520.632812 262.328125 520.539062 C 262.210938 520.320312 262.082031 520.09375 261.945312 519.855469 C 261.921875 519.820312 261.898438 519.78125 261.878906 519.746094 C 261.753906 519.535156 261.625 519.324219 261.484375 519.101562 C 261.421875 519.003906 261.359375 518.90625 261.292969 518.800781 C 261.289062 518.800781 261.289062 518.796875 261.285156 518.792969 C 260.800781 518.480469 260.289062 518.183594 259.769531 517.894531 C 258.988281 516.789062 258.078125 515.601562 257.03125 514.332031 L 256.847656 514.109375 C 256.730469 513.96875 256.222656 513.367188 255.941406 513.035156 C 256.859375 513.546875 257.703125 514.167969 258.488281 514.949219 C 258.492188 514.953125 258.5 514.957031 258.5 514.960938 C 258.214844 514.601562 257.914062 514.230469 257.609375 513.855469 C 257.546875 513.78125 257.488281 513.707031 257.421875 513.628906 C 257.234375 513.398438 257.023438 513.15625 256.824219 512.921875 C 256.65625 512.722656 256.5 512.53125 256.324219 512.328125 C 256.273438 512.273438 256.226562 512.226562 256.179688 512.175781 C 256.042969 512.027344 255.90625 511.890625 255.769531 511.746094 C 255.234375 511.496094 254.675781 511.273438 254.089844 511.089844 C 254.046875 511.078125 254.003906 511.070312 253.960938 511.058594 C 252.003906 509.433594 249.910156 508.703125 247.273438 508.703125 C 245.707031 508.703125 243.910156 508.949219 241.453125 509.5 C 234.566406 511.042969 206.398438 511.515625 190.222656 511.65625 L 189.675781 511.660156 L 189.507812 511.140625 C 187.761719 505.730469 186.824219 502.484375 186.464844 500.617188 C 179.875 466.136719 169.988281 448.0625 167.132812 445.382812 L 166.808594 445.078125 L 166.921875 444.648438 C 167.601562 442.054688 168.027344 439.539062 168.136719 438.320312 C 168.175781 437.769531 168.273438 436.976562 168.378906 436.136719 C 168.542969 434.8125 168.753906 433.300781 168.917969 432.285156 L 169.019531 431.660156 L 169.65625 431.65625 C 177.660156 431.632812 183.84375 427.785156 187.070312 420.804688 C 187.554688 419.753906 187.972656 418.640625 188.316406 417.503906 C 189.15625 414.6875 189.746094 411.933594 190.117188 409.078125 L 190.1875 408.53125 L 190.734375 408.4375 C 191.179688 408.363281 191.53125 408.296875 191.632812 408.273438 C 193.898438 407.734375 193.792969 406.960938 193.753906 406.667969 C 193.675781 406.117188 193.230469 405.625 192.757812 405.105469 C 192.375 404.679688 191.976562 404.242188 191.707031 403.707031 C 191.15625 402.632812 190.769531 401.550781 190.554688 400.488281 L 190.542969 400.429688 L 190.542969 400.363281 C 190.480469 398.132812 190.300781 395.882812 190 393.488281 C 189.5625 389.996094 189.34375 386.539062 189.175781 383.328125 L 189.164062 383.105469 L 189.273438 382.914062 C 190.703125 380.4375 191.128906 377.863281 191.625 374.886719 C 191.703125 374.417969 191.785156 373.945312 191.867188 373.460938 C 192.667969 368.890625 190.40625 365.035156 188.367188 362.605469 C 183.910156 357.292969 176.175781 353.585938 169.554688 353.585938 L 169.25 353.585938 C 165.550781 353.648438 162.0625 353.996094 158.886719 354.617188 C 149.589844 356.433594 142.496094 360.566406 137.1875 367.25 C 133.742188 371.59375 130.832031 376.699219 128.265625 381.203125 C 125.96875 385.234375 123.863281 391.078125 125.496094 394.289062 C 126.214844 395.703125 127.597656 396.503906 129.710938 396.738281 C 130.492188 396.8125 131.46875 396.898438 132.585938 396.992188 L 133.25 397.042969 L 133.273438 397.710938 C 133.5625 405.914062 137.609375 418.65625 144.171875 420.234375 L 144.375 420.28125 L 144.523438 420.425781 C 144.875 420.773438 145.238281 421.113281 145.601562 421.449219 L 145.867188 421.691406 L 145.4375 427.800781 L 143.859375 429.015625 C 131.851562 438.277344 118.238281 448.773438 114.875 463.34375 C 114.558594 464.726562 114.257812 466.121094 113.988281 467.492188 L 112.515625 467.460938 L 111.742188 462.335938 C 111.652344 461.75 111.140625 461.308594 110.554688 461.308594 C 110.492188 461.308594 110.429688 461.3125 110.367188 461.320312 C 110.046875 461.371094 109.765625 461.539062 109.574219 461.800781 C 109.382812 462.0625 109.300781 462.378906 109.351562 462.699219 L 110.917969 473.050781 L 85.957031 473.050781 L 84.335938 462.335938 C 84.246094 461.75 83.738281 461.308594 83.148438 461.308594 C 83.085938 461.308594 83.023438 461.3125 82.960938 461.320312 C 82.640625 461.371094 82.359375 461.539062 82.167969 461.800781 C 81.976562 462.0625 81.894531 462.378906 81.945312 462.699219 L 106.652344 626.082031 L 111.210938 724.195312 C 111.242188 724.796875 111.710938 725.292969 112.308594 725.347656 C 112.34375 725.347656 112.386719 725.351562 112.421875 725.351562 C 112.984375 725.351562 113.46875 724.96875 113.597656 724.417969 L 124.0625 679.457031 L 124.894531 682.011719 C 129.835938 697.242188 134.871094 712.773438 138.679688 724.519531 L 138.742188 724.671875 C 138.765625 724.722656 138.796875 724.769531 138.847656 724.851562 C 138.890625 724.910156 138.933594 724.960938 138.957031 724.988281 L 139.015625 725.039062 C 139.058594 725.074219 139.101562 725.109375 139.210938 725.175781 C 139.25 725.199219 139.289062 725.222656 139.335938 725.242188 L 139.40625 725.273438 C 139.453125 725.289062 139.5 725.304688 139.605469 725.328125 C 139.675781 725.34375 139.746094 725.351562 139.8125 725.351562 C 139.816406 725.351562 139.929688 725.34375 139.929688 725.34375 C 139.976562 725.339844 140.023438 725.332031 140.078125 725.320312 L 140.1875 725.292969 L 140.25 725.265625 C 140.300781 725.246094 140.34375 725.230469 140.386719 725.207031 L 140.476562 725.152344 C 140.511719 725.128906 140.550781 725.105469 140.578125 725.082031 C 140.605469 725.058594 140.632812 725.035156 140.664062 725.003906 C 140.691406 724.976562 140.722656 724.945312 140.746094 724.917969 C 140.769531 724.890625 140.789062 724.863281 140.808594 724.835938 C 140.832031 724.796875 140.859375 724.761719 140.878906 724.722656 L 140.921875 724.636719 C 140.9375 724.597656 140.957031 724.554688 140.972656 724.503906 L 140.996094 724.414062 C 141.003906 724.371094 141.015625 724.328125 141.019531 724.277344 L 141.027344 724.175781 L 141.035156 724.085938 L 136.476562 625.949219 C 136.472656 625.902344 136.46875 625.855469 136.453125 625.753906 L 136.246094 624.382812 L 203.90625 624.382812 L 203.773438 641.664062 L 202.988281 646.335938 L 203.023438 641.597656 L 193.867188 696.144531 L 194.132812 696.175781 L 195.144531 696.285156 L 194.761719 696.617188 C 194.648438 697.046875 194.535156 697.460938 194.429688 697.851562 C 193.027344 702.984375 192.695312 704.203125 197.398438 706.332031 C 199.882812 707.457031 201.582031 708.347656 202.90625 709.222656 L 203.246094 709.445312 L 203.128906 724.128906 C 203.125 724.796875 203.664062 725.347656 204.339844 725.351562 C 205.003906 725.351562 205.546875 724.8125 205.550781 724.148438 L 205.648438 711.445312 L 207.152344 713.105469 C 207.867188 713.898438 208.679688 714.796875 209.773438 715.902344 C 215.910156 722.09375 221.371094 723.390625 224.875 723.390625 C 229.898438 723.390625 233.097656 720.753906 233.476562 719.28125 C 233.730469 718.285156 230.5 715.933594 228.359375 714.375 C 227.390625 713.667969 226.382812 712.933594 225.496094 712.222656 C 221.816406 709.265625 218.765625 702.574219 219.410156 698.914062 L 220.152344 698.992188 L 221.734375 699.164062 C 221.734375 699.164062 234.351562 663.3125 242.3125 635.695312 L 245.316406 637.125 L 261.542969 699.160156 L 262.089844 698.300781 L 262.347656 699.285156 L 245.046875 726.265625 L 250.253906 726.265625 L 263.855469 705.050781 L 264.113281 706.035156 L 263.566406 706.890625 L 264.324219 709.792969 L 264.570312 709.707031 L 265.535156 709.363281 L 265.332031 709.835938 C 265.414062 710.273438 265.492188 710.691406 265.5625 711.089844 C 266.484375 716.101562 266.734375 717.449219 271.355469 717.449219 C 271.535156 717.449219 271.722656 717.445312 271.914062 717.441406 C 272.566406 717.425781 273.175781 717.417969 273.734375 717.417969 C 278.996094 717.417969 280.640625 718.089844 283.621094 719.3125 C 284.613281 719.71875 285.738281 720.175781 287.210938 720.699219 C 290.542969 721.882812 293.703125 722.484375 296.609375 722.484375 C 303.605469 722.484375 307.167969 719.054688 308.375 717.582031 C 309.753906 715.898438 310.203125 714.300781 310.035156 713.464844 C 309.832031 712.457031 305.898438 711.738281 303.296875 711.261719 C 302.113281 711.046875 300.894531 710.824219 299.785156 710.5625 C 295.191406 709.492188 289.546875 704.789062 288.542969 701.207031 L 289.246094 700.957031 L 290.742188 700.425781 C 290.742188 700.425781 289.273438 687.039062 287.074219 670.226562 L 286.449219 671.203125 C 286.410156 670.910156 286.371094 670.621094 286.332031 670.324219 L 286.296875 670.054688 L 300.601562 647.746094 L 350.941406 726.265625 L 356.132812 726.265625 L 303.191406 643.703125 Z M 312.199219 420.144531 L 326.222656 434.183594 L 332.351562 428.050781 C 336.53125 423.867188 337.972656 417.449219 335.859375 412.4375 L 335.660156 411.972656 L 337.222656 410.410156 C 337.972656 409.664062 338.496094 408.671875 338.703125 407.617188 L 338.824219 407.011719 L 341.777344 407.019531 C 342.335938 407.019531 342.839844 406.703125 343.09375 406.195312 L 343.300781 405.78125 L 345.429688 405.785156 C 351.910156 405.816406 365.636719 416.996094 365.636719 429.375 L 365.636719 475.0625 L 348.554688 475.0625 C 347.367188 475.0625 346.367188 476.09375 346.367188 477.308594 C 346.367188 478.257812 346.992188 479.128906 347.890625 479.429688 L 347.769531 480.171875 C 347.730469 480.160156 347.691406 480.152344 347.652344 480.140625 L 329.960938 480.140625 L 329.960938 480.886719 L 326.792969 480.886719 L 326.792969 527.164062 L 326.046875 527.164062 L 326.046875 529.121094 L 326.792969 529.121094 L 326.792969 529.871094 L 300.023438 529.871094 L 301.238281 529.121094 L 302.660156 529.121094 C 302.75 529.070312 302.832031 529.007812 302.914062 528.945312 C 303.175781 528.742188 303.394531 528.480469 303.574219 528.199219 L 308.164062 528.199219 C 310.292969 528.199219 312.042969 527.386719 312.851562 526.027344 L 313.03125 525.722656 L 313.378906 525.667969 C 314.621094 525.472656 316.324219 524.820312 317.375 523.5625 C 320.101562 520.28125 319.085938 514.394531 318.710938 512.667969 L 318.667969 512.480469 L 318.28125 512.480469 L 318.351562 513.15625 C 318.371094 513.382812 318.398438 513.628906 318.429688 513.894531 C 318.710938 516.363281 319.175781 520.496094 317.011719 523.097656 C 316.253906 524.007812 315.359375 524.640625 314.355469 524.988281 L 313.300781 525.347656 L 313.375 524.136719 C 313.378906 524.085938 313.382812 524.035156 313.382812 523.980469 L 313.382812 510.238281 L 309.558594 510.238281 L 309.8125 509.488281 L 323.703125 468.195312 C 324.207031 466.6875 323.398438 465.058594 321.894531 464.554688 C 320.394531 464.050781 318.765625 464.863281 318.265625 466.363281 L 312.949219 482.171875 L 312.910156 482.289062 L 312.203125 482.171875 L 312.203125 420.144531 Z M 292.625 421.707031 L 311.738281 421.707031 L 311.738281 444.757812 L 292.625 444.757812 Z M 292.625 445.21875 L 311.738281 445.21875 L 311.738281 466.308594 L 292.625 466.308594 Z M 300.457031 376.644531 L 311.738281 376.644531 L 311.738281 399.691406 L 300.457031 399.691406 Z M 300.457031 400.152344 L 311.738281 400.152344 L 311.738281 410.304688 L 307.050781 414.992188 L 311.738281 419.683594 L 311.738281 421.246094 L 292.625 421.246094 L 292.625 407.992188 L 300.457031 407.992188 Z M 273.050781 376.644531 L 282.375 376.644531 L 282.375 399.691406 L 273.050781 399.691406 Z M 251.519531 376.644531 L 272.589844 376.644531 L 272.589844 399.691406 L 261.304688 399.691406 L 261.304688 387.9375 L 251.519531 387.9375 Z M 251.519531 413.871094 L 261.304688 413.871094 L 261.304688 400.152344 L 272.589844 400.152344 L 272.589844 421.246094 L 251.519531 421.246094 Z M 251.519531 421.707031 L 272.589844 421.707031 L 272.589844 430.75 C 272.324219 430.875 272.074219 431.023438 271.839844 431.195312 C 270.878906 431.914062 270.183594 433 269.960938 434.210938 C 269.917969 434.457031 269.890625 434.707031 269.886719 434.960938 L 268.671875 434.960938 L 268.671875 444.757812 L 251.519531 444.757812 Z M 251.519531 445.21875 L 268.671875 445.21875 L 268.671875 466.308594 L 251.519531 466.308594 Z M 212.367188 376.644531 L 231.480469 376.644531 L 231.480469 387.9375 L 223.652344 387.9375 L 223.652344 399.691406 L 212.367188 399.691406 Z M 212.367188 400.152344 L 223.652344 400.152344 L 223.652344 413.871094 L 231.480469 413.871094 L 231.480469 421.242188 L 212.367188 421.242188 Z M 212.367188 421.707031 L 231.480469 421.707031 L 231.480469 444.757812 L 212.367188 444.757812 Z M 212.367188 445.21875 L 231.480469 445.21875 L 231.480469 451.84375 L 231.429688 451.84375 C 231.195312 451.84375 230.960938 451.871094 230.734375 451.910156 C 228.808594 452.226562 227.25 453.832031 226.898438 455.761719 C 226.851562 456.007812 226.828125 456.257812 226.824219 456.511719 L 225.609375 456.511719 L 225.609375 466.308594 L 212.367188 466.308594 Z M 231.480469 489.820312 L 212.367188 489.820312 L 212.367188 466.773438 L 225.609375 466.773438 L 225.609375 474.609375 L 231.480469 474.609375 Z M 251.054688 489.820312 L 231.945312 489.820312 L 231.945312 474.609375 L 245.644531 474.609375 L 245.644531 466.773438 L 251.054688 466.773438 Z M 251.054688 466.308594 L 245.644531 466.308594 L 245.644531 456.511719 L 242.472656 456.511719 C 242.46875 456.257812 242.445312 456.007812 242.402344 455.765625 C 242.03125 453.601562 240.222656 451.84375 237.980469 451.84375 L 237.582031 451.84375 L 237.582031 450.71875 C 237.582031 449.277344 236.476562 447.925781 235.035156 447.925781 L 234.375 447.925781 C 233.742188 447.925781 233.15625 448.199219 232.691406 448.617188 C 232.367188 448.90625 232.113281 449.269531 231.941406 449.667969 L 231.941406 445.21875 L 251.054688 445.21875 Z M 251.054688 444.757812 L 231.945312 444.757812 L 231.945312 421.707031 L 251.054688 421.707031 Z M 251.054688 421.246094 L 231.945312 421.246094 L 231.945312 413.871094 L 251.054688 413.871094 Z M 251.054688 387.1875 L 250.980469 387.9375 L 250.300781 387.9375 C 250.296875 387.683594 250.277344 387.433594 250.234375 387.1875 C 249.859375 385.027344 248.050781 383.269531 245.8125 383.269531 L 245.414062 383.269531 L 245.414062 382.140625 C 245.414062 380.699219 244.308594 379.351562 242.863281 379.351562 L 242.207031 379.351562 C 240.765625 379.351562 239.542969 380.699219 239.542969 382.140625 L 239.542969 383.269531 L 239.261719 383.269531 C 237.023438 383.269531 235.121094 385.027344 234.726562 387.1875 C 234.683594 387.433594 234.65625 387.683594 234.652344 387.9375 L 231.945312 387.9375 L 231.945312 376.644531 L 251.054688 376.644531 Z M 272.589844 489.820312 L 251.519531 489.820312 L 251.519531 466.773438 L 268.671875 466.773438 L 268.671875 470.691406 L 272.585938 470.691406 L 272.585938 489.820312 Z M 292.164062 489.820312 L 273.050781 489.820312 L 273.050781 470.691406 L 288.710938 470.691406 L 288.710938 466.773438 L 292.164062 466.773438 Z M 292.164062 466.308594 L 288.710938 466.308594 L 288.710938 445.21875 L 292.164062 445.21875 Z M 292.164062 444.757812 L 288.710938 444.757812 L 288.710938 434.960938 L 285.539062 434.960938 C 285.535156 434.707031 285.511719 434.457031 285.46875 434.210938 C 285.097656 432.050781 283.285156 430.292969 281.046875 430.292969 L 280.652344 430.292969 L 280.652344 429.164062 C 280.652344 427.722656 279.542969 426.375 278.101562 426.375 L 277.441406 426.375 C 276 426.375 274.777344 427.722656 274.777344 429.164062 L 274.777344 430.292969 L 274.496094 430.292969 C 274.257812 430.292969 274.027344 430.316406 273.800781 430.355469 C 273.542969 430.398438 273.292969 430.46875 273.050781 430.554688 L 273.050781 421.707031 L 292.164062 421.707031 Z M 292.164062 421.246094 L 273.050781 421.246094 L 273.050781 400.152344 L 282.375 400.152344 L 282.375 407.992188 L 292.164062 407.992188 Z M 292.625 489.820312 L 292.625 466.773438 L 311.738281 466.773438 L 311.738281 485.773438 L 310.992188 487.996094 L 310.628906 489.074219 L 310.375 489.820312 Z M 246.96875 521.566406 C 248.632812 520.640625 250.347656 519.683594 251.949219 519.683594 L 252.050781 519.683594 C 257.304688 519.816406 258.777344 522.679688 259.105469 523.554688 L 259.28125 524.027344 C 258.777344 523.992188 258.449219 523.953125 258.449219 523.953125 C 258.449219 523.953125 258.433594 523.902344 258.402344 523.816406 L 243.925781 523.816406 C 243.894531 523.824219 243.863281 523.832031 243.832031 523.839844 L 243.730469 523.09375 C 244.71875 522.824219 245.863281 522.1875 246.96875 521.566406 Z M 234.710938 522.890625 C 235.496094 522.890625 236.253906 522.96875 237.132812 523.0625 L 237.234375 523.074219 L 237.195312 523.820312 C 237.183594 523.820312 237.167969 523.820312 237.15625 523.816406 L 232.921875 523.816406 C 232.898438 523.824219 232.871094 523.832031 232.847656 523.835938 L 232.769531 523.085938 C 233.394531 522.953125 234.027344 522.890625 234.710938 522.890625 Z M 94.914062 532.292969 L 114.570312 532.292969 L 114.59375 533.019531 C 114.734375 537.351562 114.714844 541.722656 114.542969 546.375 C 114.472656 548.144531 114.25 550 114.023438 551.75 L 113.9375 552.402344 L 97.957031 552.402344 Z M 106.105469 606.285156 L 98.324219 554.824219 L 113.625 554.824219 L 113.53125 555.65625 C 113.199219 558.605469 112.964844 561.984375 113.703125 564.855469 C 114.332031 565.109375 115.085938 565.335938 115.941406 565.53125 L 116.535156 565.664062 L 116.523438 566.273438 C 116.523438 566.320312 116.519531 566.367188 116.519531 566.414062 C 116.269531 566.367188 116.019531 566.3125 115.773438 566.257812 C 115.730469 568.71875 115.703125 571.179688 115.703125 573.617188 C 115.703125 589.816406 119.335938 599.6875 126.019531 605.535156 L 127.15625 605.535156 L 128.011719 606.285156 Z M 114.449219 710.089844 L 112.972656 709.957031 L 109.730469 640.152344 L 111.1875 639.886719 C 114.125 648.875 118.21875 661.460938 122.550781 674.800781 L 122.617188 675 Z M 123.675781 670.4375 L 122.847656 667.882812 C 119.625 657.964844 116.519531 648.429688 114.070312 640.925781 C 112.570312 636.324219 111.3125 632.492188 110.429688 629.808594 L 110.402344 629.730469 C 109.828125 627.992188 109.414062 626.734375 109.089844 625.914062 L 109.058594 625.835938 L 108.839844 624.382812 L 133.800781 624.382812 L 134.035156 625.933594 Z M 137.941406 709.636719 L 136.480469 709.902344 C 133.484375 700.65625 129.347656 687.894531 125.1875 675.089844 L 125.125 674.890625 L 133.238281 640.023438 L 134.714844 640.160156 Z M 204.417969 558.566406 L 203.675781 558.15625 L 203.683594 557.304688 C 203.28125 557.082031 202.90625 556.875 202.5625 556.683594 C 202.234375 556.78125 201.882812 556.875 201.53125 556.972656 L 200.628906 556.472656 L 202.296875 555.984375 C 202.296875 555.859375 202.296875 555.730469 202.292969 555.59375 L 202.273438 554.828125 L 204.449219 554.828125 Z M 201.933594 552.402344 L 201.820312 551.792969 C 201.046875 547.628906 199.375 541.554688 196.554688 532.679688 L 196.3125 531.917969 L 197.089844 531.726562 C 199.738281 531.078125 202.035156 530.453125 204.3125 529.769531 C 207.574219 528.785156 211.011719 528.273438 214.652344 527.730469 C 218.273438 527.191406 222.015625 526.632812 225.707031 525.566406 L 226.8125 525.296875 L 226.703125 526.046875 C 226.441406 526.128906 226.179688 526.210938 225.914062 526.289062 C 225.894531 526.421875 225.875 526.554688 225.875 526.691406 C 225.878906 528.082031 226.863281 529.242188 228.171875 529.507812 L 228.171875 529.125 L 228.917969 529.125 L 228.917969 565.605469 L 247.925781 565.605469 L 262.175781 587.820312 L 261.621094 588.339844 L 261.546875 588.226562 C 257.628906 585.324219 252.78125 582.53125 246.691406 579.652344 C 233.035156 573.195312 216.957031 564.574219 207.582031 559.445312 L 207.574219 560.296875 C 207.457031 560.230469 207.335938 560.164062 207.222656 560.101562 L 206.828125 559.886719 L 206.867188 554.824219 L 219.59375 554.824219 L 219.59375 552.402344 Z M 242.3125 635.691406 C 242.382812 635.445312 242.449219 635.207031 242.519531 634.964844 L 244.308594 635.8125 C 244.238281 636.058594 244.167969 636.296875 244.097656 636.542969 Z M 285.402344 663.335938 L 285.246094 662.191406 L 285.867188 661.222656 C 283.503906 644.003906 280.574219 625.179688 277.761719 613.90625 C 277.703125 613.679688 277.644531 613.460938 277.589844 613.242188 L 277.523438 613.140625 L 278.21875 612.835938 L 298.003906 643.6875 Z M 253.117188 565.601562 L 348.074219 565.601562 L 300.597656 639.644531 Z M 414.511719 637.285156 C 413.28125 637.285156 412.027344 637.371094 410.789062 637.539062 L 410.308594 636.152344 C 416.414062 632.5625 420.453125 627.484375 421.6875 621.855469 L 421.765625 621.496094 L 422.101562 621.335938 C 423.570312 620.65625 424.976562 619.839844 426.277344 618.917969 C 431.367188 615.320312 435.222656 609.894531 436.984375 603.90625 C 428.953125 604.835938 421.253906 608.347656 415.203125 613.855469 L 415.042969 613.996094 L 414.835938 614.035156 C 402.953125 616.273438 394.976562 623.820312 392.960938 634.738281 L 392.84375 635.367188 C 392.84375 635.367188 392.496094 635.359375 392.113281 635.347656 C 392.152344 635.101562 392.179688 634.847656 392.226562 634.601562 C 391.898438 634.59375 391.574219 634.585938 391.242188 634.578125 C 391.265625 634.828125 391.28125 635.078125 391.296875 635.328125 C 391.277344 635.328125 391.246094 635.328125 391.230469 635.328125 L 390.570312 635.246094 L 390.492188 634.597656 L 390.472656 634.398438 L 390.492188 634.292969 C 390.867188 632.34375 391.15625 630.636719 391.375 629.078125 L 391.382812 629.019531 L 391.402344 628.964844 C 392.523438 625.296875 393.84375 621.640625 395.320312 618.105469 L 395.484375 617.707031 L 395.910156 617.652344 C 413.839844 615.269531 423.847656 600.183594 421.527344 579.144531 C 420.859375 579.074219 420.195312 579.042969 419.539062 579.042969 C 410.992188 579.042969 403.113281 584.910156 398.464844 594.738281 L 397.300781 597.199219 L 397.042969 594.488281 C 396.191406 585.4375 392.003906 579.480469 385.523438 578.039062 C 383.15625 582.78125 381.585938 587.476562 380.855469 592 L 380.609375 593.519531 L 379.566406 592.386719 C 373.589844 585.898438 365.003906 581.335938 354.710938 579.171875 C 348.234375 593.847656 356.65625 608.214844 365.941406 616.121094 L 366.136719 616.289062 L 366.1875 616.539062 C 367.023438 620.578125 368.734375 624.417969 371.144531 627.652344 C 371.464844 628.085938 371.839844 628.546875 372.28125 629.0625 L 373.410156 630.386719 L 371.671875 630.296875 C 371.316406 630.28125 370.957031 630.269531 370.597656 630.269531 C 367.636719 630.269531 364.503906 630.875 361.28125 632.0625 C 357.542969 633.441406 354 635.464844 350.574219 637.421875 C 350.128906 637.675781 349.6875 637.925781 349.242188 638.179688 C 353.683594 641.449219 358.292969 644.726562 363.5 646.695312 L 363.980469 646.875 L 363.980469 647.660156 C 363.730469 647.574219 363.480469 647.488281 363.234375 647.394531 L 363.234375 660.242188 C 363.273438 660.238281 363.304688 660.222656 363.34375 660.222656 C 363.589844 660.222656 363.808594 660.320312 363.980469 660.472656 L 363.980469 660.910156 L 363.320312 660.988281 C 363.214844 661 363.109375 661.078125 363.109375 661.203125 C 363.109375 661.886719 363.347656 662.539062 363.832031 663.191406 L 363.980469 663.394531 L 363.980469 664.472656 C 363.699219 664.203125 363.445312 663.925781 363.234375 663.640625 L 363.234375 691.375 C 363.273438 691.371094 363.304688 691.351562 363.34375 691.351562 C 363.589844 691.351562 363.808594 691.453125 363.980469 691.605469 L 363.980469 692.042969 L 363.320312 692.117188 C 363.214844 692.128906 363.109375 692.207031 363.109375 692.332031 C 363.109375 693.015625 363.347656 693.667969 363.832031 694.324219 L 363.980469 694.523438 L 363.980469 695.601562 C 363.699219 695.335938 363.445312 695.054688 363.234375 694.769531 L 363.234375 719.179688 L 363.421875 719.179688 C 364.417969 723.417969 375.828125 726.761719 389.769531 726.761719 C 404.363281 726.761719 416.195312 723.097656 416.195312 718.578125 C 416.195312 718.335938 416.152344 718.097656 416.085938 717.859375 L 416.085938 695.042969 C 415.867188 695.304688 415.617188 695.554688 415.339844 695.800781 L 415.339844 694.769531 L 415.515625 694.5625 C 416.128906 693.832031 416.425781 693.105469 416.425781 692.332031 C 416.425781 692.222656 416.347656 692.132812 416.246094 692.105469 L 415.339844 692.214844 L 415.339844 691.890625 C 415.488281 691.613281 415.757812 691.410156 416.085938 691.375 L 416.085938 663.914062 C 415.867188 664.175781 415.617188 664.425781 415.339844 664.671875 L 415.339844 663.640625 L 415.515625 663.433594 C 416.128906 662.703125 416.425781 661.976562 416.425781 661.203125 C 416.425781 661.09375 416.347656 661 416.246094 660.976562 L 415.339844 661.085938 L 415.339844 660.761719 C 415.488281 660.484375 415.757812 660.28125 416.085938 660.246094 L 416.085938 649.136719 C 415.832031 649.109375 415.585938 649.070312 415.339844 649.035156 L 415.339844 648.292969 L 416.175781 648.394531 C 416.925781 648.488281 417.691406 648.566406 418.496094 648.632812 C 419.496094 648.714844 420.566406 648.757812 421.59375 648.757812 C 424.65625 648.757812 431.738281 648.335938 433.164062 644.546875 C 428.550781 640.382812 422.667969 637.835938 416.542969 637.367188 C 415.875 637.3125 415.191406 637.285156 414.511719 637.285156 Z M 392.378906 616.484375 L 392.382812 616.296875 L 392.472656 616.132812 C 392.847656 615.46875 393.207031 614.773438 393.546875 614.0625 L 394.6875 611.660156 L 394.964844 614.304688 C 395.0625 615.226562 395.164062 615.980469 395.292969 616.667969 L 395.332031 616.890625 L 395.246094 617.097656 C 394.703125 618.371094 394.167969 619.6875 393.660156 621.007812 L 392.214844 620.695312 C 392.296875 619.34375 392.351562 617.964844 392.378906 616.484375 Z M 387.867188 624.664062 C 388.382812 621.976562 388.65625 619.3125 388.6875 616.746094 L 388.703125 615.390625 L 389.839844 616.125 C 390.335938 616.449219 390.878906 616.765625 391.5 617.097656 L 391.910156 617.316406 L 391.894531 617.78125 C 391.777344 621.457031 391.457031 625.179688 390.945312 628.84375 L 390.9375 628.902344 L 390.140625 631.542969 L 389.425781 629.160156 C 389.023438 627.816406 388.515625 626.453125 387.917969 625.105469 L 387.824219 624.894531 Z M 384.074219 625.226562 C 385.144531 625.445312 386.210938 625.613281 387.246094 625.722656 L 387.691406 625.769531 L 387.859375 626.179688 C 388.769531 628.382812 389.414062 630.574219 389.777344 632.695312 L 389.808594 632.855469 L 389.765625 633.015625 C 389.609375 633.59375 389.457031 634.175781 389.3125 634.757812 L 389.171875 635.316406 L 388.597656 635.324219 C 388.53125 635.324219 388.46875 635.328125 388.40625 635.328125 C 388.46875 635.078125 388.523438 634.824219 388.585938 634.574219 C 388.226562 634.582031 387.871094 634.589844 387.515625 634.597656 C 387.582031 634.84375 387.640625 635.09375 387.703125 635.34375 C 387.644531 635.34375 387.589844 635.34375 387.53125 635.34375 L 386.949219 635.359375 L 386.792969 634.796875 C 385.988281 631.886719 384.804688 629.035156 383.269531 626.328125 L 382.457031 624.894531 Z M 384.074219 625.226562 " fill-opacity="1" fill-rule="nonzero"/><path fill="#1fc39e" d="M 230.734375 475.359375 L 224.863281 475.359375 L 224.863281 455.761719 L 226.898438 455.761719 C 226.847656 456.03125 226.820312 456.304688 226.820312 456.582031 L 226.820312 457.722656 L 242.480469 457.722656 L 242.480469 456.582031 C 242.480469 456.304688 242.449219 456.03125 242.40625 455.761719 L 246.394531 455.761719 L 246.394531 475.359375 Z M 293.375 408.738281 L 301.203125 408.738281 L 301.203125 375.433594 L 298.367188 375.433594 C 298.917969 376.226562 299.246094 377.191406 299.246094 378.210938 L 299.246094 379.351562 L 283.585938 379.351562 L 283.585938 378.210938 C 283.585938 377.191406 283.933594 376.226562 284.507812 375.433594 L 281.628906 375.433594 L 281.628906 408.738281 Z M 373.023438 487.976562 L 326.046875 487.976562 L 326.046875 527.164062 L 373.027344 527.164062 L 373.027344 487.976562 Z M 223.496094 577.882812 C 218.363281 575.453125 212.859375 572.707031 207.5 569.949219 L 207.480469 572.144531 C 212.574219 574.75 217.773438 577.339844 222.660156 579.652344 C 243.382812 589.449219 250.753906 599.726562 247.492188 615.558594 C 246.371094 621.007812 244.519531 628.035156 242.3125 635.691406 L 244.097656 636.542969 C 246.363281 628.699219 248.265625 621.5 249.410156 615.953125 C 252.851562 599.242188 245.34375 588.210938 223.496094 577.882812 Z M 202.5625 556.683594 C 202.710938 556.640625 202.871094 556.597656 203.015625 556.554688 C 203.042969 556.261719 203.046875 555.933594 203.039062 555.574219 L 112.789062 555.574219 C 112.398438 559.03125 112.222656 562.453125 113.078125 565.402344 C 113.855469 565.75 114.773438 566.03125 115.773438 566.257812 C 119.910156 567.203125 125.488281 567.210938 128.941406 567.007812 C 134.4375 566.679688 140.355469 567.003906 145.839844 566.199219 C 154.867188 564.878906 171.402344 562.753906 185.234375 560.363281 C 190.214844 563.078125 196.695312 566.558594 203.582031 570.132812 L 203.601562 567.933594 C 198.011719 565.023438 192.726562 562.195312 188.332031 559.816406 C 193.949219 558.796875 198.9375 557.738281 202.5625 556.683594 Z M 113.121094 521.4375 C 111.613281 504.996094 109.527344 490.683594 112.382812 472.304688 C 112.636719 470.683594 112.921875 469.035156 113.253906 467.347656 C 113.523438 465.980469 113.820312 464.59375 114.148438 463.175781 C 117.691406 447.8125 132.097656 437.15625 144.710938 427.410156 C 145.101562 427.109375 156.375 438.484375 159.640625 440.636719 C 162.949219 442.808594 162.984375 443.34375 166.984375 444.386719 C 167.15625 444.433594 167.382812 444.589844 167.644531 444.835938 C 170.957031 447.949219 180.808594 467.042969 187.199219 500.476562 C 187.597656 502.558594 188.730469 506.300781 190.21875 510.90625 C 182.746094 510.972656 177.539062 510.972656 177.539062 510.972656 L 150.601562 521.457031 C 150.695312 521.578125 150.78125 521.703125 150.871094 521.824219 C 150.78125 521.703125 150.683594 521.582031 150.59375 521.460938 L 142.933594 524.441406 L 142.695312 524.535156 L 142.6875 524.539062 C 142.6875 524.539062 123.464844 494.210938 123.796875 476.574219 L 121.859375 477.121094 C 121.839844 494.71875 138.753906 521.972656 141.042969 525.597656 L 141.902344 526.949219 L 143.410156 526.359375 L 151.847656 523.089844 C 154.628906 526.691406 157.617188 530.132812 160.800781 533.386719 C 162.449219 535.070312 164.199219 536.742188 166.363281 537.671875 C 170.53125 539.453125 175.308594 538.164062 179.644531 536.855469 C 186.242188 534.875 191.457031 533.878906 197.269531 532.453125 C 199.597656 539.789062 201.652344 546.796875 202.558594 551.65625 L 113.28125 551.65625 C 113.515625 549.824219 113.730469 548.03125 113.792969 546.347656 C 113.96875 541.667969 113.984375 537.351562 113.847656 533.042969 C 113.726562 529.25 113.488281 525.460938 113.121094 521.4375 Z M 163.09375 465.519531 L 177.542969 510.972656 C 177.542969 510.972656 178.257812 510.972656 179.488281 510.96875 L 179.410156 510.628906 L 164.941406 464.996094 Z M 353.675781 566.351562 L 228.171875 566.351562 L 228.171875 529.125 L 373.023438 529.125 L 373.023438 566.351562 Z M 328 544.796875 L 273.191406 544.796875 L 273.191406 552.636719 L 328 552.636719 Z M 380.121094 591.882812 C 373.925781 585.160156 364.976562 580.460938 354.277344 578.320312 C 347.796875 592.230469 354.28125 607.167969 365.460938 616.691406 C 364.933594 614.144531 364.742188 611.527344 364.921875 608.929688 C 373.03125 612.382812 379.710938 618.527344 383.921875 625.960938 C 385 626.179688 386.085938 626.351562 387.167969 626.464844 C 386.78125 625.527344 386.363281 624.585938 385.875 623.644531 C 383.414062 618.890625 380.007812 614.574219 376.710938 610.402344 L 354.953125 582.878906 C 354.617188 582.457031 354.691406 581.839844 355.113281 581.503906 C 355.535156 581.171875 356.152344 581.238281 356.492188 581.664062 L 378.246094 609.1875 C 381.601562 613.433594 385.066406 617.820312 387.617188 622.746094 C 387.96875 623.433594 388.296875 624.117188 388.601562 624.804688 C 389.132812 622.027344 389.402344 619.34375 389.433594 616.753906 C 381.289062 611.488281 378.433594 602.320312 380.121094 591.882812 Z M 410.6875 636.800781 C 407.996094 638.382812 405.09375 639.585938 402.238281 640.386719 C 410.894531 639.734375 419.644531 640.699219 427.96875 643.273438 C 428.484375 643.433594 428.777344 643.980469 428.617188 644.5 C 428.484375 644.921875 428.101562 645.191406 427.679688 645.191406 C 427.585938 645.191406 427.488281 645.175781 427.390625 645.144531 C 418.414062 642.371094 408.925781 641.511719 399.621094 642.601562 C 401.78125 644.15625 403.78125 645.367188 405.785156 646.3125 C 408.984375 647.824219 412.203125 648.660156 416.085938 649.136719 C 416.847656 649.226562 417.621094 649.308594 418.4375 649.375 C 423.289062 649.773438 432.707031 649.53125 434.015625 644.3125 C 429.277344 639.886719 423.042969 637.109375 416.601562 636.617188 C 414.632812 636.464844 412.648438 636.53125 410.6875 636.800781 Z M 352.914062 638.082031 C 363.230469 634.113281 375.480469 634.941406 386.363281 640.066406 C 386.328125 639.890625 386.285156 639.714844 386.226562 639.535156 C 386.132812 639.238281 386.027344 638.945312 385.910156 638.65625 C 380 636.785156 375.234375 633.664062 371.714844 629.550781 C 368.105469 629.363281 364.433594 630.101562 361.027344 631.359375 C 356.386719 633.070312 352.148438 635.695312 347.871094 638.09375 C 352.703125 641.660156 357.636719 645.277344 363.238281 647.390625 C 363.621094 647.539062 364.011719 647.679688 364.40625 647.808594 C 369.199219 649.40625 374.640625 649.691406 379.289062 647.925781 C 380.550781 647.445312 381.757812 646.824219 382.871094 646.027344 C 384.230469 645.058594 385.636719 643.742188 386.183594 642.167969 C 375.613281 636.984375 363.644531 636.050781 353.617188 639.910156 C 353.105469 640.101562 352.542969 639.851562 352.351562 639.347656 C 352.160156 638.839844 352.410156 638.273438 352.914062 638.082031 Z M 426.710938 619.53125 C 432.261719 615.605469 436.339844 609.644531 437.992188 603.050781 C 429.238281 603.8125 421.003906 607.566406 414.699219 613.300781 C 416.753906 612.914062 418.898438 612.691406 421.117188 612.632812 C 425.324219 609.929688 429.71875 607.523438 434.253906 605.472656 C 434.746094 605.25 435.324219 605.464844 435.546875 605.960938 C 435.769531 606.453125 435.550781 607.03125 435.058594 607.257812 C 430.730469 609.214844 426.53125 611.5 422.503906 614.066406 C 423.023438 616.925781 422.953125 619.578125 422.417969 622.015625 C 423.929688 621.3125 425.363281 620.484375 426.710938 619.53125 Z M 396.011719 618.394531 C 415.546875 615.796875 424.675781 598.957031 422.203125 578.46875 C 411.308594 577.050781 402.503906 584.453125 397.792969 594.417969 C 398.402344 600.917969 397.152344 608.207031 394.21875 614.386719 C 394.304688 615.199219 394.410156 616.007812 394.558594 616.804688 C 400.386719 603.148438 408.769531 590.566406 419.214844 580.050781 C 419.589844 579.667969 420.210938 579.660156 420.597656 580.046875 C 420.980469 580.425781 420.984375 581.046875 420.601562 581.429688 C 410.125 591.984375 401.757812 604.644531 396.011719 618.394531 Z M 396.011719 618.394531 " fill-opacity="1" fill-rule="nonzero"/><path fill="#fbd872" d="M 319.269531 511.734375 L 314.128906 511.734375 L 314.128906 509.488281 L 309.8125 509.488281 L 304.035156 526.664062 C 304.035156 526.667969 304.035156 526.675781 304.035156 526.679688 C 304.035156 527.609375 303.589844 528.421875 302.914062 528.945312 L 308.164062 528.945312 C 310.46875 528.945312 312.503906 528.074219 313.492188 526.410156 C 314.945312 526.183594 316.800781 525.417969 317.949219 524.039062 C 321.28125 520.027344 319.476562 512.726562 319.417969 512.414062 Z M 316.4375 522.621094 C 315.777344 523.410156 314.992188 523.976562 314.113281 524.28125 C 314.121094 524.183594 314.128906 524.085938 314.128906 523.984375 L 314.128906 513.230469 L 317.605469 513.230469 C 317.828125 515.476562 318.621094 519.996094 316.4375 522.621094 Z M 303.761719 509.488281 L 298.945312 523.8125 L 287.214844 523.8125 L 287.214844 509.488281 Z M 293.375 491.03125 L 309.96875 491.03125 L 310.628906 489.074219 L 293.375 489.074219 L 293.375 467.519531 L 310.992188 467.519531 L 310.992188 487.996094 L 312.949219 482.171875 L 312.949219 421.953125 L 310.992188 419.992188 L 310.992188 420.496094 L 293.375 420.496094 L 293.375 408.738281 L 291.417969 408.738281 L 291.417969 420.496094 L 273.800781 420.496094 L 273.800781 400.902344 L 281.628906 400.902344 L 281.628906 398.941406 L 273.800781 398.941406 L 273.800781 377.390625 L 281.628906 377.390625 L 281.628906 375.433594 L 211.160156 375.433594 L 211.160156 491.03125 Z M 293.375 422.457031 L 310.992188 422.457031 L 310.992188 444.007812 L 293.375 444.007812 Z M 293.375 445.96875 L 310.992188 445.96875 L 310.992188 465.5625 L 293.375 465.5625 Z M 291.417969 465.5625 L 289.457031 465.5625 L 289.457031 445.96875 L 291.417969 445.96875 Z M 213.117188 422.457031 L 230.734375 422.457031 L 230.734375 444.007812 L 213.117188 444.007812 Z M 250.308594 465.5625 L 246.394531 465.5625 L 246.394531 467.519531 L 250.308594 467.519531 L 250.308594 489.074219 L 232.691406 489.074219 L 232.691406 475.359375 L 230.734375 475.359375 L 230.734375 489.074219 L 213.117188 489.074219 L 213.117188 467.519531 L 224.863281 467.519531 L 224.863281 465.5625 L 213.117188 465.5625 L 213.117188 445.96875 L 230.734375 445.96875 L 230.734375 451.910156 C 230.960938 451.871094 231.195312 451.84375 231.429688 451.84375 L 231.714844 451.84375 L 231.714844 450.714844 C 231.714844 449.910156 232.101562 449.144531 232.691406 448.617188 L 232.691406 445.964844 L 250.308594 445.964844 Z M 250.308594 444.007812 L 232.691406 444.007812 L 232.691406 422.457031 L 250.308594 422.457031 Z M 250.308594 414.617188 L 250.308594 420.496094 L 232.691406 420.496094 L 232.691406 414.617188 L 230.734375 414.617188 L 230.734375 420.496094 L 213.117188 420.496094 L 213.117188 400.902344 L 222.902344 400.902344 L 222.902344 398.941406 L 213.117188 398.941406 L 213.117188 377.390625 L 230.734375 377.390625 L 230.734375 387.1875 L 232.691406 387.1875 L 232.691406 377.390625 L 250.308594 377.390625 L 250.308594 387.1875 L 252.265625 387.1875 L 252.265625 377.390625 L 271.839844 377.390625 L 271.839844 398.941406 L 262.054688 398.941406 L 262.054688 400.902344 L 271.839844 400.902344 L 271.839844 420.496094 L 252.265625 420.496094 L 252.265625 414.617188 Z M 252.265625 445.96875 L 267.925781 445.96875 L 267.925781 465.5625 L 252.265625 465.5625 Z M 271.839844 489.074219 L 252.265625 489.074219 L 252.265625 467.519531 L 267.925781 467.519531 L 267.925781 471.4375 L 271.839844 471.4375 Z M 269.882812 436.171875 L 269.882812 435.03125 C 269.882812 434.753906 269.914062 434.480469 269.960938 434.210938 L 267.925781 434.210938 L 267.925781 444.007812 L 252.265625 444.007812 L 252.265625 422.457031 L 271.839844 422.457031 L 271.839844 431.195312 C 272.414062 430.769531 273.082031 430.472656 273.796875 430.355469 L 273.796875 422.457031 L 291.414062 422.457031 L 291.414062 444.007812 L 289.457031 444.007812 L 289.457031 434.210938 L 285.46875 434.210938 C 285.515625 434.480469 285.542969 434.753906 285.542969 435.03125 L 285.542969 436.171875 Z M 273.796875 471.4375 L 289.457031 471.4375 L 289.457031 467.519531 L 291.414062 467.519531 L 291.414062 489.074219 L 273.796875 489.074219 Z M 310.988281 400.902344 L 301.203125 400.902344 L 301.203125 398.941406 L 310.988281 398.941406 L 310.988281 377.390625 L 301.203125 377.390625 L 301.203125 375.433594 L 312.949219 375.433594 L 312.949219 408.0625 C 312.851562 408.15625 312.746094 408.238281 312.652344 408.332031 L 310.988281 409.996094 Z M 113.847656 533.042969 L 95.785156 533.042969 L 86.597656 472.304688 L 112.382812 472.304688 C 109.527344 490.683594 111.613281 504.996094 113.121094 521.4375 C 113.488281 525.460938 113.726562 529.25 113.847656 533.042969 Z M 126.019531 605.539062 L 203.304688 605.539062 L 203.152344 625.132812 L 109.710938 625.132812 L 106.746094 605.539062 Z M 373.023438 477.308594 C 373.023438 478.617188 372.167969 479.746094 370.992188 480.140625 C 370.703125 480.238281 370.40625 480.304688 370.089844 480.304688 L 366.84375 480.304688 L 366.84375 480.367188 L 364.886719 480.367188 L 364.886719 480.304688 L 348.554688 480.304688 C 348.238281 480.304688 347.9375 480.238281 347.652344 480.140625 C 346.476562 479.746094 345.617188 478.613281 345.617188 477.308594 C 345.617188 475.6875 346.933594 474.316406 348.554688 474.316406 L 364.886719 474.316406 L 364.886719 429.378906 C 364.886719 417.386719 351.667969 406.5625 345.425781 406.535156 L 343.761719 406.53125 C 343.398438 407.261719 342.648438 407.769531 341.773438 407.769531 L 339.4375 407.761719 C 339.75 406.179688 339.414062 404.523438 338.289062 403.304688 L 341.789062 403.3125 C 342.667969 403.3125 343.421875 403.828125 343.777344 404.574219 L 345.433594 404.578125 C 352.484375 404.609375 366.847656 416.109375 366.847656 429.378906 L 366.847656 474.316406 L 370.089844 474.316406 C 371.707031 474.316406 373.023438 475.6875 373.023438 477.308594 Z M 373.023438 477.308594 " fill-opacity="1" fill-rule="nonzero"/><path fill="#f9b57d" d="M 230.734375 414.617188 L 222.902344 414.617188 L 222.902344 387.1875 L 234.726562 387.1875 C 234.679688 387.457031 234.648438 387.726562 234.648438 388.007812 L 234.648438 389.144531 L 250.308594 389.144531 L 250.308594 388.007812 C 250.308594 387.726562 250.28125 387.457031 250.234375 387.1875 L 262.054688 387.1875 L 262.054688 414.617188 Z M 299.949219 709.835938 C 295.585938 708.820312 290.121094 704.230469 289.242188 700.960938 L 264.570312 709.707031 L 264.550781 709.75 C 265.777344 716.128906 265.617188 718.339844 271.929688 718.1875 C 280.53125 717.988281 280.574219 719.136719 286.960938 721.40625 C 303.867188 727.414062 311.5 716.988281 310.769531 713.316406 C 310.363281 711.308594 304.320312 710.847656 299.949219 709.835938 Z M 225.964844 711.636719 C 222.46875 708.828125 219.527344 702.316406 220.152344 698.992188 L 206.503906 697.511719 L 206.382812 713.367188 C 207.144531 714.210938 208.023438 715.195312 209.242188 716.429688 C 221.878906 729.175781 233.269531 723.089844 234.203125 719.464844 C 234.703125 717.480469 229.460938 714.445312 225.964844 711.636719 Z M 194.097656 696.203125 C 192.433594 702.488281 191.339844 704.410156 197.09375 707.011719 C 199.589844 708.144531 201.242188 709.019531 202.492188 709.847656 L 202.59375 697.089844 L 194.132812 696.171875 Z M 187.75 421.117188 C 188.054688 420.453125 188.328125 419.753906 188.589844 419.027344 Z M 159.644531 440.636719 C 156.375 438.484375 145.105469 427.109375 144.714844 427.410156 L 145.097656 422 C 144.722656 421.660156 144.359375 421.3125 144 420.960938 C 144.378906 421.050781 144.761719 421.113281 145.15625 421.132812 C 148.953125 421.320312 155.078125 414.875 159.863281 408.972656 C 158.089844 406.746094 157.210938 404.160156 158.726562 401.496094 C 160.367188 398.523438 164.109375 398.085938 167.011719 399.269531 C 167.214844 398.769531 167.722656 397.53125 168.359375 395.972656 C 173.445312 394.40625 178.738281 392.40625 181.96875 390.527344 C 186.171875 388.089844 188.511719 385.730469 189.921875 383.28125 C 190.097656 386.652344 190.320312 390.035156 190.742188 393.390625 C 191.039062 395.757812 191.222656 398.0625 191.289062 400.339844 C 191.5 401.386719 191.886719 402.414062 192.371094 403.363281 C 192.9375 404.480469 194.3125 405.261719 194.492188 406.5625 C 194.707031 408.128906 192.996094 408.714844 191.804688 408.996094 C 191.703125 409.023438 191.332031 409.09375 190.859375 409.171875 C 190.492188 411.988281 189.898438 414.816406 189.035156 417.714844 C 188.925781 418.070312 188.800781 418.40625 188.683594 418.746094 C 186.75 417.984375 185.085938 419.972656 187.210938 420.910156 C 187.382812 420.984375 187.550781 421.058594 187.742188 421.128906 C 184.113281 428.984375 177.289062 432.382812 169.65625 432.402344 C 166.464844 432.410156 165.667969 435.261719 169.121094 436.226562 C 169.015625 437.078125 168.917969 437.847656 168.886719 438.367188 C 168.765625 439.722656 168.3125 442.285156 167.644531 444.835938 C 167.382812 444.589844 167.160156 444.429688 166.984375 444.386719 C 162.984375 443.34375 162.949219 442.808594 159.644531 440.636719 Z M 255.21875 516.871094 C 255.164062 516.84375 255.109375 516.828125 255.054688 516.800781 C 252.480469 515.8125 249.738281 515.867188 247.691406 516.964844 L 247.199219 516.042969 C 249.5625 514.78125 252.675781 514.785156 255.609375 515.90625 C 257.378906 516.621094 259.496094 517.644531 261.289062 518.792969 C 260.554688 517.65625 259.613281 516.363281 258.492188 514.949219 C 257.125 513.589844 255.617188 512.671875 253.777344 512.082031 C 251.320312 511.3125 248.917969 511.886719 246.664062 512.542969 L 246.371094 511.546875 C 248.777344 510.84375 251.351562 510.222656 254.089844 511.089844 C 254.679688 511.269531 255.234375 511.492188 255.769531 511.746094 C 255.90625 511.890625 256.042969 512.027344 256.179688 512.175781 C 251.941406 507.378906 247.613281 507.351562 241.289062 508.769531 C 234.503906 510.289062 206.789062 510.761719 190.21875 510.90625 C 182.746094 510.972656 177.539062 510.972656 177.539062 510.972656 L 150.601562 521.457031 C 150.695312 521.578125 150.78125 521.703125 150.871094 521.824219 C 151.191406 522.25 151.511719 522.675781 151.847656 523.089844 L 151.84375 523.089844 C 154.628906 526.6875 157.617188 530.132812 160.796875 533.386719 C 162.449219 535.070312 164.199219 536.742188 166.359375 537.667969 C 170.53125 539.449219 175.308594 538.164062 179.644531 536.855469 C 186.242188 534.875 191.457031 533.878906 197.269531 532.453125 C 199.554688 531.890625 201.929688 531.265625 204.527344 530.484375 C 211.011719 528.53125 218.503906 528.421875 225.914062 526.285156 C 227.585938 525.804688 229.253906 525.222656 230.90625 524.488281 C 231.648438 524.160156 232.304688 523.949219 232.921875 523.816406 C 234.367188 523.511719 235.59375 523.652344 237.15625 523.816406 C 238.644531 523.976562 240.441406 524.152344 243.042969 523.980469 C 243.332031 523.960938 243.625 523.898438 243.925781 523.816406 C 246.503906 523.109375 249.582031 520.371094 252.03125 520.433594 C 256.894531 520.554688 258.167969 523.183594 258.402344 523.816406 C 258.433594 523.902344 258.449219 523.953125 258.449219 523.953125 C 258.449219 523.953125 260.804688 524.230469 262.65625 524.023438 C 262.84375 524.003906 262.976562 523.925781 263.078125 523.816406 C 263.457031 523.414062 263.269531 522.429688 262.554688 520.988281 C 260.648438 519.382812 257.621094 517.847656 255.21875 516.871094 Z M 278.632812 550.816406 C 279.792969 550.816406 280.730469 549.875 280.730469 548.714844 C 280.730469 547.554688 279.792969 546.617188 278.632812 546.617188 C 277.476562 546.617188 276.535156 547.554688 276.535156 548.714844 C 276.535156 549.875 277.476562 550.816406 278.632812 550.816406 Z M 323.65625 546.617188 C 322.496094 546.617188 321.558594 547.558594 321.558594 548.71875 C 321.558594 549.875 322.496094 550.816406 323.65625 550.816406 C 324.816406 550.816406 325.753906 549.875 325.753906 548.71875 C 325.753906 547.558594 324.816406 546.617188 323.65625 546.617188 Z M 326.042969 487.976562 L 329.957031 487.976562 L 329.957031 480.140625 L 326.042969 480.140625 Z M 335.398438 480.972656 C 334.242188 480.972656 333.300781 481.914062 333.300781 483.074219 C 333.300781 484.230469 334.242188 485.171875 335.398438 485.171875 C 336.5625 485.171875 337.5 484.230469 337.5 483.074219 C 337.5 481.914062 336.5625 480.972656 335.398438 480.972656 Z M 366.71875 485.171875 C 367.882812 485.171875 368.820312 484.230469 368.820312 483.074219 C 368.820312 481.914062 367.882812 480.972656 366.71875 480.972656 C 365.5625 480.972656 364.621094 481.914062 364.621094 483.074219 C 364.621094 484.230469 365.5625 485.171875 366.71875 485.171875 Z M 416.199219 660.21875 C 416.160156 660.21875 416.125 660.234375 416.089844 660.242188 C 415.601562 660.296875 415.21875 660.695312 415.21875 661.199219 C 415.21875 664.605469 404.765625 668.402344 389.769531 668.402344 C 374.773438 668.402344 364.324219 664.605469 364.324219 661.199219 C 364.324219 660.65625 363.886719 660.21875 363.34375 660.21875 C 363.304688 660.21875 363.273438 660.234375 363.234375 660.238281 C 362.75 660.296875 362.363281 660.695312 362.363281 661.199219 C 362.363281 662.070312 362.675781 662.882812 363.234375 663.636719 C 366.496094 668.019531 378.433594 670.363281 389.769531 670.363281 C 400.871094 670.363281 412.542969 668.117188 416.085938 663.910156 C 416.785156 663.082031 417.175781 662.175781 417.175781 661.199219 C 417.175781 660.65625 416.738281 660.21875 416.199219 660.21875 Z M 416.199219 691.347656 C 416.160156 691.347656 416.125 691.367188 416.089844 691.371094 C 415.601562 691.425781 415.21875 691.824219 415.21875 692.328125 C 415.21875 695.734375 404.765625 699.53125 389.769531 699.53125 C 374.773438 699.53125 364.324219 695.734375 364.324219 692.328125 C 364.324219 691.785156 363.886719 691.347656 363.34375 691.347656 C 363.304688 691.347656 363.273438 691.367188 363.234375 691.371094 C 362.75 691.425781 362.363281 691.824219 362.363281 692.328125 C 362.363281 693.199219 362.675781 694.011719 363.234375 694.765625 C 366.496094 699.148438 378.433594 701.492188 389.769531 701.492188 C 400.871094 701.492188 412.542969 699.25 416.085938 695.039062 C 416.785156 694.210938 417.175781 693.308594 417.175781 692.328125 C 417.175781 691.785156 416.738281 691.347656 416.199219 691.347656 Z M 422.503906 614.066406 C 422.417969 613.582031 422.328125 613.101562 422.207031 612.609375 C 421.839844 612.609375 421.480469 612.621094 421.117188 612.632812 C 418.898438 612.691406 416.753906 612.917969 414.699219 613.300781 C 403.035156 615.5 394.390625 622.890625 392.226562 634.601562 C 392.101562 635.277344 391.996094 635.96875 391.917969 636.675781 C 391.808594 637.609375 391.742188 638.566406 391.710938 639.550781 C 396.539062 632.328125 404.691406 626.1875 412.105469 620.597656 C 414.988281 618.425781 417.710938 616.371094 420.015625 614.414062 C 420.425781 614.066406 421.046875 614.121094 421.394531 614.527344 C 421.746094 614.941406 421.695312 615.558594 421.28125 615.910156 C 418.9375 617.902344 416.191406 619.972656 413.285156 622.164062 C 405.695312 627.882812 397.3125 634.199219 392.773438 641.519531 C 395.582031 641.714844 398.875 641.328125 402.242188 640.382812 C 405.09375 639.582031 407.996094 638.382812 410.691406 636.796875 C 416.3125 633.488281 420.996094 628.503906 422.417969 622.015625 C 422.953125 619.578125 423.023438 616.925781 422.503906 614.066406 Z M 389.433594 616.753906 C 389.980469 617.109375 390.554688 617.441406 391.148438 617.757812 C 391.539062 605.375 389.660156 593.09375 385.503906 581.058594 C 385.328125 580.546875 385.597656 579.992188 386.109375 579.8125 C 386.621094 579.636719 387.179688 579.910156 387.355469 580.421875 C 391.441406 592.257812 393.355469 604.328125 393.125 616.5 C 393.515625 615.8125 393.878906 615.109375 394.21875 614.386719 C 397.152344 608.207031 398.402344 600.921875 397.792969 594.417969 C 396.980469 585.816406 392.910156 578.597656 385.117188 577.195312 C 382.566406 582.1875 380.882812 587.164062 380.121094 591.882812 C 378.433594 602.320312 381.289062 611.488281 389.433594 616.753906 Z M 365.460938 616.691406 C 366.308594 620.804688 368.039062 624.734375 370.546875 628.097656 C 370.917969 628.597656 371.308594 629.078125 371.714844 629.550781 C 375.234375 633.664062 380 636.785156 385.910156 638.65625 C 386.367188 638.800781 386.835938 638.9375 387.308594 639.070312 C 382.121094 629.347656 375.316406 620.394531 367.335938 612.859375 C 366.941406 612.488281 366.921875 611.871094 367.292969 611.476562 C 367.664062 611.082031 368.28125 611.0625 368.675781 611.4375 C 376.230469 618.5625 382.75 626.9375 387.875 636.027344 C 387.765625 635.550781 387.644531 635.070312 387.515625 634.597656 C 386.6875 631.585938 385.46875 628.6875 383.921875 625.957031 C 379.710938 618.523438 373.03125 612.378906 364.925781 608.929688 C 364.742188 611.527344 364.933594 614.144531 365.460938 616.691406 Z M 365.460938 616.691406 " fill-opacity="1" fill-rule="nonzero"/><g clip-path="url(#5e3394a50f)"><path fill="#1d1d1f" d="M 108.609375 462.8125 C 108.449219 461.742188 109.183594 460.742188 110.253906 460.582031 C 111.316406 460.414062 112.320312 461.15625 112.480469 462.222656 L 113.253906 467.347656 C 112.921875 469.035156 112.636719 470.683594 112.386719 472.304688 L 110.046875 472.304688 Z M 159.949219 430.898438 C 162.554688 434.316406 165.667969 435.261719 169.121094 436.226562 C 169.285156 434.914062 169.496094 433.417969 169.65625 432.402344 C 166.464844 432.410156 163.132812 431.832031 159.832031 430.738281 C 159.871094 430.792969 159.90625 430.847656 159.949219 430.898438 Z M 187.210938 420.914062 C 187.382812 420.984375 187.550781 421.058594 187.742188 421.132812 L 187.75 421.117188 L 188.589844 419.027344 L 188.699219 418.753906 C 188.695312 418.75 188.691406 418.75 188.683594 418.746094 C 186.75 417.984375 185.636719 417.066406 185.042969 415.628906 L 182.835938 416.980469 C 183.675781 418.738281 185.085938 419.976562 187.210938 420.914062 Z M 189.234375 400.253906 C 189.097656 399.121094 188.066406 398.328125 186.945312 398.464844 C 185.824219 398.605469 185.023438 399.632812 185.164062 400.761719 C 185.304688 401.890625 186.332031 402.6875 187.457031 402.542969 C 188.578125 402.40625 189.378906 401.378906 189.234375 400.253906 Z M 186.109375 394.125 C 186.355469 394.066406 186.574219 393.929688 186.742188 393.75 C 187.023438 393.441406 187.152344 393 187.046875 392.566406 C 186.875 391.875 186.175781 391.457031 185.488281 391.628906 C 184.277344 391.933594 183.515625 392.523438 182.789062 393.09375 C 182.214844 393.523438 182.125 394.339844 182.5625 394.902344 C 182.996094 395.460938 183.804688 395.5625 184.363281 395.128906 C 185.054688 394.585938 185.449219 394.292969 186.109375 394.125 Z M 129.640625 397.484375 C 130.425781 397.558594 131.40625 397.644531 132.523438 397.734375 C 132.832031 406.445312 137.148438 419.3125 144 420.960938 C 144.378906 421.050781 144.761719 421.113281 145.15625 421.132812 C 148.953125 421.320312 155.078125 414.875 159.863281 408.972656 C 158.089844 406.746094 157.210938 404.160156 158.726562 401.496094 C 160.367188 398.523438 164.109375 398.085938 167.011719 399.269531 C 167.214844 398.769531 167.722656 397.53125 168.359375 395.972656 C 173.445312 394.40625 178.738281 392.40625 181.96875 390.527344 C 186.171875 388.089844 188.511719 385.730469 189.921875 383.28125 C 191.652344 380.285156 191.980469 377.15625 192.605469 373.585938 C 194.511719 362.671875 180.367188 352.640625 169.234375 352.835938 C 165.648438 352.898438 162.128906 353.21875 158.742188 353.882812 C 150.183594 355.554688 142.460938 359.40625 136.605469 366.785156 C 133.179688 371.097656 130.339844 376.046875 127.613281 380.832031 C 124.863281 385.65625 120.613281 396.480469 129.640625 397.484375 Z M 162.523438 402.339844 C 162.183594 403.949219 162.570312 405.773438 163.535156 407.097656 C 164.308594 408.167969 165.417969 408.824219 166.640625 408.953125 L 166.910156 406.398438 C 166.402344 406.34375 165.96875 406.066406 165.617188 405.582031 C 165.082031 404.855469 164.847656 403.757812 165.039062 402.867188 Z M 202.558594 551.65625 L 220.339844 551.65625 L 220.339844 555.574219 L 207.613281 555.574219 L 207.582031 559.445312 L 207.5 569.949219 L 207.484375 572.144531 L 206.507812 697.515625 L 206.382812 713.367188 L 206.300781 724.15625 C 206.292969 725.230469 205.414062 726.097656 204.34375 726.097656 C 204.335938 726.097656 204.332031 726.097656 204.328125 726.097656 C 203.246094 726.089844 202.375 725.207031 202.382812 724.125 L 202.496094 709.847656 L 202.59375 697.089844 L 203.027344 641.597656 L 203.15625 625.132812 L 203.308594 605.539062 L 203.582031 570.132812 L 203.601562 567.933594 L 203.683594 557.304688 L 203.695312 555.574219 L 99.191406 555.574219 L 106.746094 605.539062 L 109.710938 625.132812 L 109.785156 625.640625 C 110.121094 626.492188 110.535156 627.746094 111.136719 629.574219 C 112.023438 632.257812 113.277344 636.09375 114.78125 640.695312 C 117.230469 648.195312 120.335938 657.734375 123.558594 667.652344 L 133.273438 625.902344 L 133.15625 625.132812 L 137.117188 625.132812 L 137.191406 625.640625 C 137.191406 625.648438 137.195312 625.65625 137.195312 625.660156 L 137.199219 625.691406 C 137.210938 625.757812 137.214844 625.824219 137.222656 625.890625 L 141.78125 724.050781 C 141.78125 724.101562 141.773438 724.148438 141.773438 724.199219 C 141.769531 724.253906 141.769531 724.308594 141.761719 724.367188 C 141.753906 724.441406 141.738281 724.515625 141.722656 724.585938 C 141.710938 724.636719 141.699219 724.6875 141.683594 724.734375 C 141.660156 724.808594 141.632812 724.875 141.601562 724.945312 C 141.578125 724.992188 141.558594 725.039062 141.535156 725.082031 C 141.5 725.144531 141.460938 725.207031 141.417969 725.265625 C 141.386719 725.308594 141.355469 725.351562 141.320312 725.394531 C 141.273438 725.449219 141.226562 725.496094 141.179688 725.542969 C 141.136719 725.585938 141.097656 725.625 141.050781 725.660156 C 140.996094 725.703125 140.9375 725.742188 140.878906 725.78125 C 140.832031 725.8125 140.785156 725.84375 140.738281 725.867188 C 140.667969 725.902344 140.597656 725.933594 140.523438 725.960938 C 140.492188 725.972656 140.460938 725.992188 140.425781 726.003906 C 140.40625 726.011719 140.386719 726.011719 140.367188 726.019531 C 140.320312 726.03125 140.277344 726.042969 140.230469 726.050781 C 140.148438 726.070312 140.070312 726.082031 139.988281 726.089844 C 139.964844 726.089844 139.941406 726.097656 139.917969 726.097656 C 139.890625 726.097656 139.867188 726.097656 139.847656 726.101562 C 139.839844 726.101562 139.832031 726.101562 139.824219 726.101562 C 139.703125 726.101562 139.585938 726.085938 139.46875 726.066406 C 139.4375 726.058594 139.40625 726.050781 139.375 726.042969 C 139.296875 726.023438 139.21875 726 139.140625 725.972656 C 139.101562 725.957031 139.066406 725.941406 139.027344 725.925781 C 138.960938 725.894531 138.894531 725.859375 138.828125 725.820312 C 138.792969 725.800781 138.761719 725.78125 138.730469 725.761719 C 138.652344 725.710938 138.582031 725.652344 138.515625 725.59375 C 138.5 725.578125 138.480469 725.566406 138.464844 725.550781 C 138.382812 725.472656 138.308594 725.382812 138.238281 725.289062 C 138.226562 725.273438 138.214844 725.25 138.203125 725.230469 C 138.152344 725.15625 138.109375 725.082031 138.066406 725 C 138.046875 724.957031 138.03125 724.914062 138.015625 724.871094 C 137.996094 724.828125 137.976562 724.789062 137.960938 724.742188 C 134.15625 713 129.121094 697.472656 124.179688 682.242188 L 114.324219 724.585938 C 114.117188 725.476562 113.320312 726.097656 112.421875 726.097656 C 112.359375 726.097656 112.300781 726.09375 112.242188 726.089844 C 111.269531 726 110.507812 725.207031 110.460938 724.230469 L 105.90625 626.15625 L 81.207031 462.8125 C 81.042969 461.742188 81.78125 460.742188 82.847656 460.582031 C 83.914062 460.414062 84.914062 461.15625 85.074219 462.222656 L 86.597656 472.304688 L 95.785156 533.042969 L 98.601562 551.65625 Z M 125.898438 674.859375 C 130.058594 687.664062 134.195312 700.425781 137.191406 709.671875 L 133.96875 640.195312 Z M 110.476562 640.121094 L 113.71875 709.921875 L 121.839844 675.03125 C 117.507812 661.691406 113.414062 649.105469 110.476562 640.121094 Z M 353.675781 566.351562 L 346.707031 566.351562 L 300.597656 638.257812 L 254.488281 566.351562 L 247.519531 566.351562 L 261.546875 588.226562 L 277.589844 613.242188 L 297.113281 643.6875 L 285.867188 661.226562 L 261.542969 699.15625 L 243.753906 726.898438 L 243.925781 727.015625 L 250.664062 727.015625 L 263.566406 706.890625 L 287.070312 670.226562 L 300.597656 649.132812 L 350.53125 727.015625 L 357.5 727.015625 L 304.082031 643.703125 Z M 435.546875 605.960938 C 435.324219 605.464844 434.746094 605.25 434.253906 605.472656 C 429.71875 607.523438 425.324219 609.929688 421.117188 612.632812 C 421.480469 612.621094 421.839844 612.609375 422.207031 612.609375 C 422.328125 613.101562 422.417969 613.585938 422.503906 614.066406 C 426.53125 611.5 430.730469 609.214844 435.058594 607.257812 C 435.550781 607.03125 435.769531 606.453125 435.546875 605.960938 Z M 427.96875 643.273438 C 419.644531 640.699219 410.894531 639.734375 402.238281 640.386719 C 398.875 641.328125 395.578125 641.714844 392.773438 641.519531 C 397.3125 634.199219 405.695312 627.882812 413.285156 622.164062 C 416.191406 619.972656 418.9375 617.90625 421.28125 615.910156 C 421.695312 615.5625 421.742188 614.941406 421.394531 614.53125 C 421.046875 614.121094 420.425781 614.070312 420.015625 614.417969 C 417.710938 616.375 414.988281 618.425781 412.105469 620.597656 C 404.691406 626.1875 396.539062 632.332031 391.710938 639.554688 C 391.738281 638.570312 391.808594 637.613281 391.914062 636.679688 C 391.726562 636.671875 391.539062 636.667969 391.351562 636.664062 C 391.347656 635.976562 391.308594 635.28125 391.246094 634.578125 C 391.242188 634.53125 391.234375 634.484375 391.230469 634.433594 C 391.566406 632.683594 391.871094 630.933594 392.117188 629.183594 C 393.238281 625.527344 394.535156 621.925781 396.011719 618.394531 C 401.753906 604.648438 410.125 591.984375 420.601562 581.429688 C 420.984375 581.046875 420.980469 580.425781 420.597656 580.046875 C 420.210938 579.664062 419.589844 579.667969 419.210938 580.050781 C 408.769531 590.570312 400.382812 603.148438 394.554688 616.804688 C 394 618.109375 393.46875 619.421875 392.960938 620.742188 C 393.046875 619.324219 393.097656 617.914062 393.125 616.5 C 393.355469 604.324219 391.441406 592.257812 387.355469 580.421875 C 387.179688 579.910156 386.621094 579.636719 386.109375 579.8125 C 385.597656 579.988281 385.328125 580.546875 385.5 581.058594 C 389.65625 593.09375 391.539062 605.371094 391.144531 617.757812 C 391.027344 621.410156 390.714844 625.070312 390.203125 628.742188 C 390.183594 628.808594 390.164062 628.875 390.140625 628.945312 C 389.730469 627.570312 389.21875 626.1875 388.601562 624.804688 C 388.296875 624.117188 387.96875 623.429688 387.613281 622.746094 C 385.066406 617.820312 381.597656 613.429688 378.246094 609.183594 L 356.488281 581.664062 C 356.148438 581.238281 355.535156 581.167969 355.113281 581.503906 C 354.6875 581.839844 354.617188 582.453125 354.953125 582.878906 L 376.707031 610.398438 C 380.003906 614.574219 383.414062 618.886719 385.875 623.644531 C 386.359375 624.585938 386.78125 625.527344 387.167969 626.464844 C 388.054688 628.613281 388.683594 630.746094 389.039062 632.820312 C 388.886719 633.402344 388.734375 633.988281 388.585938 634.574219 C 388.429688 635.210938 388.273438 635.84375 388.125 636.484375 C 388.042969 636.332031 387.960938 636.179688 387.875 636.03125 C 382.75 626.9375 376.226562 618.566406 368.675781 611.4375 C 368.28125 611.066406 367.664062 611.082031 367.289062 611.476562 C 366.917969 611.871094 366.9375 612.492188 367.332031 612.863281 C 375.3125 620.394531 382.117188 629.347656 387.304688 639.070312 C 386.832031 638.941406 386.367188 638.800781 385.90625 638.65625 C 386.023438 638.945312 386.132812 639.238281 386.226562 639.535156 C 386.285156 639.714844 386.328125 639.894531 386.359375 640.066406 C 375.476562 634.945312 363.230469 634.113281 352.914062 638.082031 C 352.410156 638.277344 352.160156 638.84375 352.351562 639.347656 C 352.542969 639.851562 353.105469 640.105469 353.617188 639.910156 C 363.640625 636.054688 375.613281 636.984375 386.183594 642.167969 C 385.636719 643.742188 384.230469 645.058594 382.871094 646.03125 C 381.753906 646.828125 380.546875 647.449219 379.289062 647.925781 C 382.324219 648.515625 385.917969 648.859375 389.769531 648.859375 C 396.367188 648.859375 402.207031 647.855469 405.785156 646.316406 C 403.78125 645.367188 401.78125 644.15625 399.621094 642.601562 C 408.925781 641.515625 418.414062 642.371094 427.390625 645.148438 C 427.488281 645.175781 427.585938 645.191406 427.679688 645.191406 C 428.101562 645.191406 428.484375 644.921875 428.617188 644.5 C 428.777344 643.984375 428.484375 643.433594 427.96875 643.273438 Z M 312.949219 421.953125 L 326.222656 435.242188 L 332.878906 428.578125 C 337.238281 424.21875 338.804688 417.496094 336.546875 412.148438 L 337.753906 410.9375 C 338.628906 410.0625 339.207031 408.933594 339.4375 407.761719 C 339.75 406.179688 339.414062 404.523438 338.289062 403.304688 C 338.246094 403.257812 338.210938 403.210938 338.167969 403.167969 L 338.050781 403.050781 C 335.941406 400.941406 332.113281 401.082031 330.007812 403.1875 L 328.402344 404.796875 C 323.214844 403.085938 316.980469 404.261719 312.949219 408.0625 C 312.851562 408.15625 312.746094 408.238281 312.652344 408.332031 L 310.992188 409.996094 L 305.996094 414.992188 L 310.992188 419.992188 Z M 312.949219 421.953125 " fill-opacity="1" fill-rule="nonzero"/></g><g fill="#1d1d1f" fill-opacity="1"><g transform="translate(50.738322, 266.418712)"><g><path d="M 54.910156 -18.65625 C 46.199219 -7.917969 41.976562 -1.40625 25.519531 -1.40625 L 21.824219 -1.40625 L 21.824219 -56.582031 C 21.824219 -59.75 24.902344 -60.71875 29.390625 -61.160156 L 29.390625 -61.597656 L 1.320312 -61.597656 L 1.320312 -61.160156 C 4.929688 -60.71875 8.007812 -59.75 8.007812 -56.582031 L 8.007812 -11.617188 C 8.007812 -6.070312 4.929688 -1.761719 1.320312 -0.441406 L 1.320312 0 L 46.992188 0 L 49.984375 1.9375 L 50.511719 0 L 55.261719 -18.480469 Z M 54.910156 -18.65625 "/></g></g></g><g fill="#1d1d1f" fill-opacity="1"><g transform="translate(107.319832, 266.418712)"><g><path d="M 27.277344 -43.207031 C 12.671875 -43.207031 3.519531 -34.230469 3.519531 -21.296875 C 3.519531 -8.007812 12.671875 0.617188 27.277344 0.617188 C 41.886719 0.617188 51.039062 -8.359375 51.039062 -21.296875 C 51.039062 -34.582031 41.886719 -43.207031 27.277344 -43.207031 Z M 30.710938 -0.878906 C 20.328125 -0.878906 15.664062 -17.070312 15.664062 -28.511719 C 15.664062 -36.695312 17.863281 -41.710938 23.847656 -41.710938 C 34.320312 -41.710938 38.894531 -25.519531 38.894531 -13.902344 C 38.894531 -5.984375 36.695312 -0.878906 30.710938 -0.878906 Z M 30.710938 -0.878906 "/></g></g></g><g fill="#1d1d1f" fill-opacity="1"><g transform="translate(161.877431, 266.418712)"><g><path d="M 31.328125 -43.207031 C 12.496094 -43.207031 3.519531 -32.296875 3.519531 -19.359375 C 3.519531 -7.390625 11.527344 0.617188 24.726562 0.617188 C 30.007812 0.617188 34.320312 -0.792969 37.3125 -3.078125 L 37.3125 4.488281 C 37.3125 11.878906 33.4375 15.398438 29.390625 15.398438 C 26.136719 15.398438 21.824219 14.785156 18.214844 6.953125 L 6.6875 10.382812 C 10.03125 16.367188 16.105469 18.390625 21.207031 18.390625 C 31.765625 18.390625 50.246094 8.625 50.246094 3.167969 L 50.246094 -39.949219 C 43.910156 -42.152344 36.957031 -43.207031 31.328125 -43.207031 Z M 30.535156 -2.199219 C 22.351562 -2.199219 16.191406 -11.792969 16.191406 -24.640625 C 16.191406 -34.757812 19.800781 -41.535156 27.632812 -41.535156 C 31.503906 -41.535156 34.582031 -39.863281 37.3125 -36.871094 L 37.3125 -5.105469 C 35.550781 -3.078125 33.175781 -2.199219 30.535156 -2.199219 Z M 30.535156 -2.199219 "/></g></g></g><g fill="#1d1d1f" fill-opacity="1"><g transform="translate(216.963003, 266.418712)"><g><path d="M 12.40625 -48.132812 C 16.457031 -48.132812 19.625 -51.300781 19.625 -55.4375 C 19.625 -59.484375 16.457031 -62.652344 12.40625 -62.652344 C 8.359375 -62.652344 5.191406 -59.484375 5.191406 -55.4375 C 5.191406 -51.300781 8.359375 -48.132812 12.40625 -48.132812 Z M 5.71875 0 L 22.617188 0 C 19.976562 -1.761719 19.183594 -3.433594 19.183594 -8.183594 L 19.183594 -36.605469 L 19.625 -43.117188 L 0.878906 -41.796875 L 0.878906 -41.445312 C 2.726562 -41.269531 5.015625 -40.65625 6.246094 -39.863281 L 6.246094 -6.070312 Z M 5.71875 0 "/></g></g></g><g fill="#1d1d1f" fill-opacity="1"><g transform="translate(242.217892, 266.418712)"><g><path d="M 37.664062 0 L 54.558594 0 C 51.917969 -1.761719 51.125 -3.433594 51.125 -8.183594 L 51.125 -27.191406 C 51.125 -40.480469 43.292969 -43.207031 37.839844 -43.207031 C 30.007812 -43.207031 23.054688 -38.277344 19.183594 -35.550781 L 19.183594 -36.605469 L 19.625 -43.117188 L 0.878906 -41.796875 L 0.878906 -41.445312 C 2.726562 -41.269531 5.015625 -40.65625 6.246094 -39.863281 L 6.246094 -6.070312 L 5.71875 0 L 22.617188 0 C 19.976562 -1.761719 19.183594 -3.433594 19.183594 -8.183594 L 19.183594 -33.351562 C 22.175781 -35.640625 26.398438 -38.984375 31.589844 -38.984375 C 35.464844 -38.984375 38.191406 -36.78125 38.191406 -27.015625 L 38.191406 -6.070312 Z M 37.664062 0 "/></g></g></g></svg>