<svg viewBox="0 0 45 46" fill="none" xmlns="http://www.w3.org/2000/svg">
<path d="M16.8575 39.7271H28.1075" stroke="#1FC39E" stroke-width="3" stroke-linecap="round" stroke-linejoin="round"/>
<path d="M9.87878 18.6335C9.87643 16.9664 10.2039 15.3152 10.8425 13.7752C11.481 12.2352 12.4178 10.8367 13.5991 9.66027C14.7804 8.48387 16.1828 7.55281 17.7255 6.92071C19.2682 6.28862 20.9206 5.96797 22.5878 5.97725C29.5487 6.02998 35.121 11.8132 35.121 18.7917V20.0397C35.121 26.3327 36.4393 29.989 37.5995 31.9929C37.7227 32.2063 37.7877 32.4483 37.7879 32.6948C37.7881 32.9412 37.7236 33.1833 37.6007 33.397C37.4779 33.6106 37.3011 33.7882 37.088 33.912C36.8749 34.0358 36.633 34.1014 36.3866 34.1022H8.61315C8.36672 34.1014 8.12485 34.0358 7.91176 33.912C7.69867 33.7882 7.52185 33.6106 7.39902 33.397C7.27618 33.1833 7.21164 32.9412 7.21185 32.6948C7.21207 32.4483 7.27704 32.2063 7.40026 31.9929C8.56042 29.989 9.87878 26.3327 9.87878 20.0397V18.6335Z" stroke="#1FC39E" stroke-width="3" stroke-linecap="round" stroke-linejoin="round"/>
</svg>
