<svg viewBox="0 0 45 45" fill="none" xmlns="http://www.w3.org/2000/svg">
<path d="M7.98064 31.4649C5.88688 27.9324 5.15451 23.7572 5.92102 19.723C6.68753 15.6888 8.9002 12.0731 12.1436 9.55471C15.3871 7.03631 19.4382 5.78839 23.5365 6.04523C27.6349 6.30208 31.4985 8.04601 34.4022 10.9497C37.3058 13.8533 39.0497 17.7169 39.3066 21.8153C39.5634 25.9136 38.3155 29.9647 35.7971 33.2082C33.2787 36.4516 29.663 38.6643 25.6288 39.4308C21.5946 40.1973 17.4194 39.4649 13.8869 37.3712V37.3712L8.05095 39.0235C7.81185 39.0934 7.55834 39.0978 7.31699 39.036C7.07564 38.9743 6.85534 38.8488 6.67919 38.6726C6.50304 38.4965 6.37751 38.2762 6.31578 38.0348C6.25404 37.7935 6.25836 37.54 6.32829 37.3009L7.98064 31.4649Z" stroke="#1FC39E" stroke-width="3" stroke-linecap="round" stroke-linejoin="round"/>
<path d="M22.5 24.6099C23.4708 24.6099 24.2578 23.8229 24.2578 22.8521C24.2578 21.8812 23.4708 21.0942 22.5 21.0942C21.5292 21.0942 20.7422 21.8812 20.7422 22.8521C20.7422 23.8229 21.5292 24.6099 22.5 24.6099Z" fill="#1FC39E"/>
<path d="M30.9375 24.6099C31.9083 24.6099 32.6953 23.8229 32.6953 22.8521C32.6953 21.8812 31.9083 21.0942 30.9375 21.0942C29.9667 21.0942 29.1797 21.8812 29.1797 22.8521C29.1797 23.8229 29.9667 24.6099 30.9375 24.6099Z" fill="#1FC39E"/>
<path d="M14.0625 24.6099C15.0333 24.6099 15.8203 23.8229 15.8203 22.8521C15.8203 21.8812 15.0333 21.0942 14.0625 21.0942C13.0917 21.0942 12.3047 21.8812 12.3047 22.8521C12.3047 23.8229 13.0917 24.6099 14.0625 24.6099Z" fill="#1FC39E"/>
</svg>
