<svg viewBox="0 0 44 43" fill="none" xmlns="http://www.w3.org/2000/svg">
<path d="M27.5328 39.6148V29.1902C27.5328 28.7294 27.3443 28.2875 27.0088 27.9617C26.6734 27.6358 26.2184 27.4528 25.744 27.4528H18.5891C18.1147 27.4528 17.6597 27.6358 17.3242 27.9617C16.9888 28.2875 16.8003 28.7294 16.8003 29.1902V39.6148C16.8003 40.0756 16.6119 40.5175 16.2764 40.8434C15.941 41.1692 15.486 41.3522 15.0116 41.3522H4.27916C3.80475 41.3522 3.34978 41.1692 3.01433 40.8434C2.67887 40.5175 2.49042 40.0756 2.49042 39.6148V19.5258C2.49442 19.2853 2.54792 19.0481 2.64776 18.828C2.7476 18.608 2.89176 18.4095 3.07176 18.2444L20.9591 2.45552C21.2889 2.1625 21.7196 2 22.1665 2C22.6135 2 23.0442 2.1625 23.3739 2.45552L41.2613 18.2444C41.4413 18.4095 41.5855 18.608 41.6853 18.828C41.7852 19.0481 41.8387 19.2853 41.8427 19.5258V39.6148C41.8427 40.0756 41.6542 40.5175 41.3188 40.8434C40.9833 41.1692 40.5283 41.3522 40.0539 41.3522H29.3215C28.8471 41.3522 28.3921 41.1692 28.0567 40.8434C27.7212 40.5175 27.5328 40.0756 27.5328 39.6148Z" stroke="#1FC39E" stroke-width="3" stroke-linecap="round" stroke-linejoin="round"/>
</svg>
